<?xml version="1.0" encoding="UTF-8"?><svg id="Layer_1" xmlns="http://www.w3.org/2000/svg" viewBox="0 0 1552.79 1552.79"><defs><style>.cls-1{fill:#2e3334;}</style></defs><g><path class="cls-1" d="M469.09,1474.32c-11.6,0-21-9.4-21-21v-231.1c0-11.6,9.4-21,21-21s21,9.4,21,21v231.1c0,11.6-9.4,21-21,21Z"/><path class="cls-1" d="M774.87,1069.31c-6.11,0-11.91-2.66-15.9-7.28l-103.35-119.83c-3.29-3.81-5.1-8.68-5.1-13.72v-91.73c0-11.6,9.4-21,21-21s21,9.4,21,21v83.93l82.35,95.48,82.35-95.48v-83.93c0-11.6,9.4-21,21-21s21,9.4,21,21v91.73c0,5.04-1.81,9.9-5.1,13.72l-103.35,119.83c-3.99,4.62-9.79,7.28-15.9,7.28Z"/><g><path class="cls-1" d="M1018.3,596.05c-11.6,0-21-9.4-21-21v-96.96c0-122.21-99.42-221.99-221.61-222.43-.26,0-.53,0-.78,0-58.48,0-113.83,23.08-155.94,65.04-42.89,42.74-66.52,99.31-66.52,159.28v95.07c0,11.6-9.4,21-21,21s-21-9.4-21-21v-95.07c0-35.92,7.14-70.89,21.22-103.93,13.59-31.89,32.99-60.52,57.65-85.1,50.04-49.86,115.92-77.29,185.59-77.29,.32,0,.62,0,.94,0,70.43,.25,136.6,27.87,186.33,77.77,49.74,49.91,77.13,116.2,77.13,186.66v96.96c0,11.6-9.4,21-21,21Z"/><path class="cls-1" d="M774.87,889.86c-110.96,0-201.22-90.27-201.22-201.22v-163.14c0-5.68,2.3-11.12,6.38-15.07,4.08-3.95,9.58-6.08,15.25-5.92,2.45,.07,191.17,4.49,271.51-75.86,4.08-4.08,9.67-6.3,15.43-6.14,5.77,.16,11.22,2.68,15.07,6.98l73.46,82c3.45,3.85,5.36,8.84,5.36,14.01v163.14c0,110.96-90.27,201.22-201.22,201.22Zm-159.22-343.39v142.16c0,87.8,71.43,159.22,159.22,159.22s159.22-71.43,159.22-159.22v-155.11l-54.17-60.47c-79.7,63.14-212.26,72.34-264.28,73.42Z"/><path class="cls-1" d="M594.65,713.91h-25.62c-47.37,0-85.92-38.54-85.92-85.91s38.54-85.92,85.92-85.92h25.62c11.6,0,21,9.4,21,21v129.83c0,11.6-9.4,21-21,21Zm-25.62-129.83c-24.21,0-43.92,19.7-43.92,43.92s19.7,43.91,43.92,43.91h4.62v-87.83h-4.62Z"/><path class="cls-1" d="M980.72,713.91h-25.62c-11.6,0-21-9.4-21-21v-129.83c0-11.6,9.4-21,21-21h25.62c47.37,0,85.92,38.54,85.92,85.92s-38.54,85.91-85.92,85.91Zm-4.62-42h4.62c24.21,0,43.92-19.7,43.92-43.91s-19.7-43.92-43.92-43.92h-4.62v87.83Z"/></g><path class="cls-1" d="M305.09,1372.83c-11.6,0-21-9.4-21-21v-159.23c0-48.63,15.26-95.02,44.12-134.15,28.86-39.13,68.68-67.41,115.14-81.77l222.88-68.89c11.09-3.39,22.83,2.85,26.22,13.95,3.39,11.09-2.85,22.83-13.95,26.22l-.85,.26-221.9,68.59c-77.55,23.97-129.66,94.62-129.66,175.79v159.23c0,11.6-9.4,21-21,21Z"/><path class="cls-1" d="M1244.65,1372.83c-11.6,0-21-9.4-21-21v-159.23c0-81.17-52.11-151.81-129.66-175.79l-222.76-68.85c-11.09-3.39-17.33-15.13-13.94-26.22,3.39-11.09,15.13-17.34,26.22-13.94l.85,.26,222.03,68.63c46.46,14.36,86.27,42.64,115.14,81.77,28.86,39.13,44.12,85.52,44.12,134.15v159.23c0,11.6-9.4,21-21,21Z"/><path class="cls-1" d="M1082.36,1473.55c-11.6,0-21-9.4-21-21v-230.33c0-11.6,9.4-21,21-21s21,9.4,21,21v230.33c0,11.6-9.4,21-21,21Z"/></g><path class="cls-1" d="M774.87,1539.87c-103.27,0-203.45-20.23-297.78-60.13-91.1-38.53-172.91-93.69-243.16-163.94-70.25-70.25-125.41-152.06-163.94-243.16-39.9-94.33-60.13-194.51-60.13-297.78s20.23-203.45,60.13-297.78c38.53-91.1,93.69-172.91,163.94-243.16,70.25-70.25,152.06-125.41,243.16-163.94,94.33-39.9,194.51-60.13,297.78-60.13s203.45,20.23,297.78,60.13c91.1,38.53,172.91,93.69,243.16,163.94,70.25,70.25,125.41,152.06,163.94,243.16,39.9,94.33,60.13,194.51,60.13,297.78s-20.23,203.45-60.13,297.78c-38.53,91.1-93.69,172.91-163.94,243.16-70.25,70.25-152.06,125.41-243.16,163.94-94.33,39.9-194.51,60.13-297.78,60.13Zm0-1488C376.21,51.87,51.87,376.21,51.87,774.87s324.34,723,723,723,723-324.34,723-723S1173.54,51.87,774.87,51.87Z"/></svg>