<?xml version="1.0" encoding="UTF-8"?><svg id="Layer_1" xmlns="http://www.w3.org/2000/svg" viewBox="0 0 1374.14 1542.15"><defs><style>.cls-1{fill:none;}.cls-2{fill:#2e3334;}</style></defs><g><g><path class="cls-2" d="M684.92,1429.54c-76.79,0-151.3-15.04-221.45-44.71-67.75-28.65-128.58-69.67-180.82-121.91-52.24-52.24-93.26-113.08-121.91-180.82-29.67-70.15-44.71-144.65-44.71-221.45s15.04-151.3,44.71-221.45c28.65-67.75,69.67-128.58,121.91-180.82,52.24-52.24,113.08-93.26,180.82-121.91,70.15-29.67,144.65-44.71,221.45-44.71s151.3,15.04,221.45,44.71c67.75,28.65,128.58,69.67,180.82,121.91,52.24,52.24,93.26,113.08,121.91,180.82,29.67,70.15,44.71,144.65,44.71,221.45s-15.04,151.3-44.71,221.45c-28.65,67.75-69.67,128.58-121.91,180.82s-113.08,93.26-180.82,121.91c-70.15,29.67-144.65,44.71-221.45,44.71Zm0-1095.79c-290.53,0-526.89,236.36-526.89,526.89s236.36,526.89,526.89,526.89,526.89-236.36,526.89-526.89S975.45,333.76,684.92,333.76Z"/><path class="cls-2" d="M684.92,967.61c-58.98,0-106.96-47.98-106.96-106.96s47.98-106.96,106.96-106.96,106.96,47.98,106.96,106.96-47.98,106.96-106.96,106.96Zm0-171.92c-35.82,0-64.96,29.14-64.96,64.96s29.14,64.96,64.96,64.96,64.96-29.14,64.96-64.96-29.14-64.96-64.96-64.96Z"/><path class="cls-2" d="M684.92,1537c-91.3,0-179.87-17.89-263.27-53.16-80.54-34.07-152.87-82.83-214.98-144.94-62.11-62.11-110.87-134.44-144.94-214.98-35.27-83.4-53.16-171.97-53.16-263.27s17.89-179.87,53.16-263.27c34.07-80.54,82.83-152.87,144.94-214.98,62.11-62.11,134.44-110.87,214.98-144.94,83.4-35.27,171.97-53.16,263.27-53.16s179.87,17.89,263.27,53.16c80.54,34.07,152.87,82.83,214.98,144.94,62.11,62.11,110.87,134.44,144.94,214.98,35.27,83.4,53.16,171.97,53.16,263.27s-17.89,179.87-53.16,263.27c-34.07,80.54-82.83,152.87-144.94,214.98-62.11,62.11-134.44,110.87-214.98,144.94-83.4,35.27-171.97,53.16-263.27,53.16Zm0-1310.69C335.14,226.31,50.57,510.87,50.57,860.65s284.57,634.34,634.34,634.34,634.34-284.57,634.34-634.34S1034.7,226.31,684.92,226.31Z"/><g><path class="cls-2" d="M770.86,882.01c-3.91,0-7.86-1.09-11.39-3.37-9.74-6.3-12.52-19.3-6.22-29.04l105.05-162.33-162.34,105.05c-9.74,6.3-22.74,3.52-29.04-6.22-6.3-9.74-3.52-22.74,6.22-29.04l244.63-158.3c8.32-5.38,19.26-4.22,26.26,2.78,7,7,8.16,17.95,2.78,26.26l-158.31,244.63c-4.02,6.21-10.76,9.59-17.65,9.59Z"/><path class="cls-2" d="M440.65,1125.93c-5.42,0-10.8-2.09-14.86-6.15-7-7-8.16-17.94-2.78-26.26l158.3-244.64c6.3-9.74,19.3-12.52,29.04-6.22,9.74,6.3,12.52,19.3,6.22,29.04l-105.05,162.34,162.33-105.05c9.74-6.3,22.74-3.52,29.04,6.22,6.3,9.74,3.52,22.74-6.22,29.04l-244.63,158.31c-3.5,2.26-7.46,3.37-11.4,3.37Z"/></g><path class="cls-2" d="M684.92,226.31c-60.46,0-109.66-49.19-109.66-109.66S624.45,7,684.92,7s109.66,49.19,109.66,109.66-49.19,109.66-109.66,109.66Zm0-177.31c-37.31,0-67.66,30.35-67.66,67.66s30.35,67.66,67.66,67.66,67.66-30.35,67.66-67.66-30.35-67.66-67.66-67.66Z"/></g><g><path class="cls-2" d="M684.92,388c-11.6,0-21-9.4-21-21v-54.24c0-11.6,9.4-21,21-21s21,9.4,21,21v54.24c0,11.6-9.4,21-21,21Z"/><path class="cls-2" d="M684.92,1429.54c-11.6,0-21-9.4-21-21v-54.24c0-11.6,9.4-21,21-21s21,9.4,21,21v54.24c0,11.6-9.4,21-21,21Z"/></g><g><path class="cls-2" d="M1232.81,881.65h-54.24c-11.6,0-21-9.4-21-21s9.4-21,21-21h54.24c11.6,0,21,9.4,21,21s-9.4,21-21,21Z"/><path class="cls-2" d="M191.26,881.65h-54.24c-11.6,0-21-9.4-21-21s9.4-21,21-21h54.24c11.6,0,21,9.4,21,21s-9.4,21-21,21Z"/></g></g><rect class="cls-1" x="-315.08" y="-228" width="2000" height="2000"/></svg>