<?xml version="1.0" encoding="UTF-8"?><svg id="Layer_1" xmlns="http://www.w3.org/2000/svg" viewBox="0 0 1543.95 1273.93"><defs><style>.cls-1{fill:none;}.cls-2{stroke-width:5px;}.cls-2,.cls-3,.cls-4{fill:#2e3334;}.cls-2,.cls-4{stroke:#2e3334;stroke-miterlimit:10;}.cls-4{stroke-width:10px;}</style></defs><g><path class="cls-3" d="M1515.98,1268.97H27.98c-11.6,0-21-9.4-21-21V25.96C6.98,14.36,16.38,4.96,27.98,4.96H1515.98c11.6,0,21,9.4,21,21v237c0,11.6-9.4,21-21,21s-21-9.4-21-21V46.96H48.98V1226.97H1515.98c11.6,0,21,9.4,21,21s-9.4,21-21,21Z"/><path class="cls-3" d="M1515.98,1268.97H27.98c-11.6,0-21-9.4-21-21V262.96c0-11.6,9.4-21,21-21H1515.98c11.6,0,21,9.4,21,21v985c0,11.6-9.4,21-21,21ZM48.98,1226.97H1494.98V283.96H48.98v943Z"/><g><rect class="cls-3" x="179.97" y="109.46" width="70" height="70" rx="30.78" ry="30.78"/><rect class="cls-3" x="317.97" y="109.46" width="70" height="70" rx="30.78" ry="30.78"/><rect class="cls-3" x="455.97" y="109.46" width="70" height="70" rx="30.78" ry="30.78"/></g><g><g><path class="cls-3" d="M1054.13,1021.03c-29.92,0-54.26-24.34-54.26-54.26s24.34-54.26,54.26-54.26,54.26,24.34,54.26,54.26-24.34,54.26-54.26,54.26Zm0-78.38c-13.3,0-24.11,10.82-24.11,24.11s10.82,24.12,24.11,24.12,24.12-10.82,24.12-24.12-10.82-24.11-24.12-24.11Z"/><g><path class="cls-3" d="M764.67,1076.54c-6.38,0-12.3-4.08-14.35-10.48-10.05-31.37-15.15-64.13-15.15-97.35,0-43.03,8.44-84.81,25.08-124.16,16.07-37.98,39.05-72.09,68.33-101.36,29.28-29.28,63.38-52.26,101.36-68.33,39.35-16.65,81.13-25.09,124.16-25.09s84.81,8.44,124.16,25.09c37.98,16.07,72.09,39.06,101.36,68.33,29.27,29.27,52.26,63.38,68.33,101.36,16.64,39.35,25.08,81.13,25.08,124.16,0,33.22-5.1,65.97-15.15,97.35-1.22,3.81-3.9,6.97-7.46,8.8-3.55,1.83-7.69,2.17-11.5,.95l-68.75-22.02c-3.81-1.22-6.97-3.9-8.8-7.46-1.83-3.55-2.17-7.69-.95-11.5,6.81-21.27,10.27-43.52,10.27-66.13,0-119.43-97.16-216.59-216.59-216.59s-216.59,97.16-216.59,216.59c0,22.61,3.45,44.86,10.27,66.13,1.22,3.81,.88,7.94-.95,11.5-1.83,3.55-5,6.24-8.8,7.46l-68.75,22.02c-1.53,.49-3.08,.72-4.6,.72Zm289.44-396.62c-38.98,0-76.8,7.64-112.42,22.7-34.39,14.55-65.27,35.37-91.79,61.88-26.51,26.52-47.33,57.4-61.88,91.79-15.06,35.62-22.7,73.44-22.7,112.42,0,25.02,3.19,49.73,9.49,73.67l40.11-12.85c-5.01-19.78-7.55-40.18-7.55-60.83,0-136.05,110.69-246.74,246.74-246.74s246.74,110.69,246.74,246.74c0,20.65-2.54,41.05-7.55,60.83l40.11,12.85c6.3-23.94,9.49-48.66,9.49-73.67,0-38.98-7.64-76.8-22.7-112.42-14.55-34.39-35.37-65.27-61.88-91.79-26.52-26.52-57.4-47.34-91.79-61.88-35.62-15.07-73.44-22.7-112.42-22.7Z"/><path class="cls-3" d="M1054.11,801.39c-8.33,0-15.07-6.75-15.07-15.07v-48.42c0-8.32,6.75-15.07,15.07-15.07s15.07,6.75,15.07,15.07v48.42c0,8.32-6.75,15.07-15.07,15.07Z"/><path class="cls-3" d="M926.43,853.33c-3.86,0-7.72-1.47-10.66-4.41l-34.24-34.24c-5.89-5.89-5.89-15.43,0-21.32,5.89-5.89,15.43-5.89,21.32,0l34.24,34.24c5.89,5.89,5.89,15.43,0,21.32-2.94,2.94-6.8,4.41-10.66,4.41Z"/><path class="cls-3" d="M872.87,980.34h-48.42c-8.33,0-15.07-6.75-15.07-15.07s6.75-15.07,15.07-15.07h48.42c8.33,0,15.07,6.75,15.07,15.07s-6.75,15.07-15.07,15.07Z"/><path class="cls-3" d="M1281.48,982.63h-48.42c-8.32,0-15.07-6.75-15.07-15.07s6.75-15.07,15.07-15.07h48.42c8.32,0,15.07,6.75,15.07,15.07s-6.75,15.07-15.07,15.07Z"/><path class="cls-3" d="M1181.12,854.95c-3.86,0-7.72-1.47-10.66-4.41-5.89-5.89-5.89-15.43,0-21.32l34.24-34.24c5.89-5.89,15.43-5.89,21.32,0,5.89,5.89,5.89,15.43,0,21.32l-34.24,34.24c-2.94,2.94-6.8,4.41-10.66,4.41Z"/><path class="cls-3" d="M1070.71,946.34c-2.13,0-4.3-.45-6.36-1.42-7.55-3.52-10.81-12.49-7.29-20.03l43.32-92.9c3.52-7.55,12.49-10.81,20.03-7.29,7.55,3.52,10.81,12.49,7.29,20.03l-43.32,92.9c-2.56,5.48-8,8.71-13.67,8.71Z"/></g></g><path class="cls-3" d="M1265.57,413.39H278.39c-11.6,0-21-9.4-21-21s9.4-21,21-21h987.18c11.6,0,21,9.4,21,21s-9.4,21-21,21Z"/><path class="cls-3" d="M509.4,513.3h-231.02c-11.6,0-21-9.4-21-21s9.4-21,21-21h231.02c11.6,0,21,9.4,21,21s-9.4,21-21,21Z"/></g></g><rect class="cls-1" x="-228.02" y="-363.04" width="2000" height="2000"/><g><g><path class="cls-4" d="M623.8,1094.61H201.33c-1.83,0-3.59-.73-4.88-2.02-1.29-1.29-2.02-3.05-2.02-4.88l.08-283.27c0-3.81,3.09-6.9,6.9-6.9h0c3.81,0,6.9,3.09,6.9,6.9l-.08,276.36h408.66l-.08-276.36c0-3.81,3.09-6.9,6.9-6.9h0c3.81,0,6.9,3.09,6.9,6.9l.08,283.27c0,1.83-.73,3.59-2.02,4.88-1.29,1.29-3.05,2.02-4.88,2.02Z"/><path class="cls-4" d="M412.64,1005.85h-.15c-1.73,0-3.4-.65-4.68-1.83l-40.15-36.99-95.43-87.95-75.5-69.57c-2.8-2.58-2.98-6.95-.4-9.75,2.58-2.8,6.95-2.98,9.75-.4l75.5,69.57,95.43,87.95,35.55,32.75,35.55-32.76,95.43-87.94,75.5-69.57c2.8-2.58,7.17-2.4,9.75,.4,2.58,2.8,2.4,7.17-.4,9.75l-75.5,69.57-95.43,87.94-40.15,36.99c-1.27,1.17-2.94,1.83-4.68,1.83Z"/><path class="cls-4" d="M623.79,1094.61c-1.42,0-2.85-.44-4.08-1.34l-171.01-125.76c-3.07-2.26-3.73-6.58-1.47-9.65,2.26-3.07,6.58-3.73,9.65-1.47l171.01,125.76c3.07,2.26,3.73,6.58,1.47,9.65-1.35,1.84-3.44,2.81-5.56,2.81Z"/><path class="cls-4" d="M201.33,1094.61c-2.12,0-4.21-.97-5.56-2.81-2.26-3.07-1.6-7.39,1.47-9.65l171.01-125.76c3.07-2.26,7.39-1.6,9.65,1.47,2.26,3.07,1.6,7.39-1.47,9.65l-171.01,125.76c-1.23,.91-2.66,1.34-4.08,1.34Z"/></g><path class="cls-4" d="M548.21,880.9c-3.81,0-6.9-3.09-6.9-6.9v-211.45H283.81v211.45c0,3.81-3.09,6.9-6.9,6.9s-6.9-3.09-6.9-6.9v-218.36c0-3.81,3.09-6.9,6.9-6.9h271.3c3.81,0,6.9,3.09,6.9,6.9v218.36c0,3.81-3.09,6.9-6.9,6.9Z"/><path class="cls-4" d="M355.17,662.55c-1.78,0-3.55-.68-4.9-2.04-2.68-2.71-2.66-7.08,.04-9.76l57.39-56.9c2.71-2.68,7.08-2.66,9.76,.04,2.68,2.71,2.66,7.08-.04,9.76l-57.39,56.9c-1.35,1.33-3.1,2-4.86,2Z"/><path class="cls-4" d="M470.02,662.55c-1.76,0-3.51-.67-4.86-2l-57.46-56.9c-2.71-2.68-2.73-7.05-.05-9.76,2.68-2.71,7.05-2.73,9.76-.05l57.46,56.9c2.71,2.68,2.73,7.05,.05,9.76-1.35,1.36-3.13,2.04-4.9,2.04Z"/><path class="cls-4" d="M201.41,811.34c-1.8,0-3.59-.7-4.94-2.09-2.66-2.73-2.6-7.1,.13-9.76l75.5-73.55c2.73-2.66,7.1-2.6,9.76,.13,2.66,2.73,2.6,7.1-.13,9.76l-75.5,73.55c-1.34,1.31-3.08,1.96-4.81,1.96Z"/><path class="cls-4" d="M623.72,811.34c-1.74,0-3.47-.65-4.81-1.96l-75.5-73.55c-2.73-2.66-2.79-7.03-.13-9.76,2.66-2.73,7.03-2.79,9.76-.13l75.5,73.55c2.73,2.66,2.79,7.03,.13,9.76-1.35,1.39-3.15,2.09-4.94,2.09Z"/><g><g><path class="cls-2" d="M381.59,910.91c-11.93,0-21.64-9.71-21.64-21.64v-53.54c0-3.81,3.09-6.9,6.9-6.9h29.48c3.81,0,6.9,3.09,6.9,6.9v53.54c0,11.93-9.71,21.64-21.64,21.64Zm-7.84-68.28v46.64c0,4.32,3.52,7.84,7.84,7.84s7.84-3.52,7.84-7.84v-46.64h-15.68Z"/><path class="cls-2" d="M411.35,842.64h-59.53c-3.81,0-6.9-3.09-6.9-6.9v-57.79c0-3.81,3.09-6.9,6.9-6.9h59.53c3.81,0,6.9,3.09,6.9,6.9v57.79c0,3.81-3.09,6.9-6.9,6.9Zm-52.63-13.8h45.73v-43.98h-45.73v43.98Z"/><path class="cls-3" d="M351.82,831.71h-23.93c-3.81,0-6.9-3.09-6.9-6.9v-35.94c0-3.81,3.09-6.9,6.9-6.9h23.93c3.81,0,6.9,3.09,6.9,6.9v35.94c0,3.81-3.09,6.9-6.9,6.9Zm-17.03-13.8h10.12v-22.14h-10.12v22.14Z"/><path class="cls-2" d="M481.53,864.82c-.7,0-1.4-.11-2.08-.32l-70.18-22.19c-2.87-.91-4.82-3.57-4.82-6.58v-57.78c0-3.01,1.95-5.67,4.82-6.58l70.18-22.19c2.1-.66,4.38-.29,6.16,1.01,1.77,1.3,2.82,3.37,2.82,5.57v102.16c0,2.2-1.05,4.27-2.82,5.57-1.2,.88-2.63,1.33-4.08,1.33Zm-63.28-34.15l56.38,17.83v-83.32l-56.38,17.83v47.67Z"/><path class="cls-3" d="M490.48,834.02c-2.54,0-5.02-.5-7.39-1.48-3.15-1.31-4.78-5.27-3.63-8.85,1.15-3.58,4.64-5.42,7.79-4.12,1.03,.43,2.12,.64,3.23,.64,2.53,0,4.9-1.13,6.68-3.17,1.78-2.05,2.74-4.76,2.7-7.63-.07-5.58-4.12-10.29-9.02-10.49-1.23-.05-2.44,.16-3.58,.64-3.15,1.31-6.64-.54-7.79-4.12-1.15-3.58,.48-7.54,3.63-8.85,2.62-1.09,5.37-1.58,8.18-1.46,5.52,.23,10.7,2.84,14.59,7.36,3.89,4.52,6.07,10.46,6.15,16.73,.08,6.6-2.12,12.82-6.2,17.52-4.08,4.7-9.52,7.28-15.33,7.28Z"/></g><g><path class="cls-2" d="M509.23,703.23h-191.46c-3.81,0-6.9-3.09-6.9-6.9s3.09-6.9,6.9-6.9h191.46c3.81,0,6.9,3.09,6.9,6.9s-3.09,6.9-6.9,6.9Z"/><path class="cls-2" d="M403.68,736.62h-85.91c-3.81,0-6.9-3.09-6.9-6.9s3.09-6.9,6.9-6.9h85.91c3.81,0,6.9,3.09,6.9,6.9s-3.09,6.9-6.9,6.9Z"/></g></g></g></svg>