<?xml version="1.0" encoding="UTF-8"?><svg id="Layer_1" xmlns="http://www.w3.org/2000/svg" viewBox="0 0 1551.24 1546.56"><defs><style>.cls-1{fill:none;}.cls-2{fill:#2e3334;}</style></defs><g><g><path class="cls-2" d="M1223.83,1227.93H310.51c-3.96,0-7.75-1.57-10.55-4.37-2.8-2.8-4.37-6.59-4.37-10.55l.17-612.38c0-8.24,6.68-14.91,14.92-14.91h0c8.24,0,14.92,6.68,14.91,14.92l-.17,597.46h883.47l-.17-597.46c0-8.24,6.68-14.92,14.91-14.92h0c8.24,0,14.92,6.68,14.92,14.91l.17,612.38c0,3.96-1.57,7.75-4.37,10.55-2.8,2.8-6.59,4.37-10.55,4.37Z"/><path class="cls-2" d="M767.33,1036.05h-.33c-3.75,0-7.35-1.41-10.11-3.95l-86.8-79.98-206.31-190.12-163.21-150.4c-6.06-5.58-6.44-15.02-.86-21.08,5.58-6.06,15.02-6.44,21.08-.86l163.21,150.4,206.31,190.12,76.85,70.81,76.85-70.81,206.31-190.12,163.21-150.4c6.06-5.58,15.5-5.2,21.08,.86,5.58,6.06,5.2,15.5-.86,21.08l-163.21,150.4-206.31,190.12-86.8,79.98c-2.75,2.54-6.36,3.95-10.11,3.95Z"/><path class="cls-2" d="M1223.81,1227.93c-3.07,0-6.16-.94-8.83-2.9l-369.7-271.87c-6.64-4.88-8.06-14.22-3.18-20.86,4.88-6.64,14.22-8.06,20.86-3.18l369.7,271.87c6.64,4.88,8.06,14.22,3.18,20.86-2.92,3.98-7.45,6.08-12.03,6.08Z"/><path class="cls-2" d="M310.53,1227.93c-4.58,0-9.11-2.1-12.03-6.08-4.88-6.64-3.46-15.98,3.18-20.86l369.7-271.87c6.64-4.88,15.98-3.46,20.86,3.18,4.88,6.64,3.46,15.98-3.18,20.86l-369.7,271.87c-2.66,1.96-5.76,2.9-8.83,2.9Z"/></g><path class="cls-2" d="M1060.43,765.93c-8.24,0-14.92-6.68-14.92-14.92V293.88H488.83v457.13c0,8.24-6.68,14.92-14.92,14.92s-14.92-6.68-14.92-14.92V278.96c0-8.24,6.68-14.92,14.92-14.92h586.52c8.24,0,14.92,6.68,14.92,14.92v472.05c0,8.24-6.68,14.92-14.92,14.92Z"/><path class="cls-2" d="M643.1,293.88c-3.84,0-7.68-1.47-10.59-4.41-5.8-5.85-5.76-15.3,.09-21.1l124.08-123.02c5.85-5.8,15.3-5.76,21.1,.09,5.8,5.85,5.76,15.3-.09,21.1l-124.08,123.02c-2.91,2.88-6.71,4.32-10.5,4.32Z"/><path class="cls-2" d="M891.39,293.88c-3.79,0-7.59-1.44-10.5-4.32l-124.21-123.02c-5.85-5.8-5.9-15.24-.1-21.1,5.8-5.85,15.24-5.9,21.1-.1l124.21,123.02c5.85,5.8,5.9,15.24,.1,21.1-2.92,2.95-6.76,4.42-10.6,4.42Z"/><path class="cls-2" d="M310.68,615.55c-3.88,0-7.76-1.51-10.69-4.51-5.75-5.9-5.63-15.35,.28-21.1l163.23-159.01c5.9-5.75,15.35-5.63,21.1,.28,5.75,5.9,5.63,15.35-.28,21.1l-163.23,159.01c-2.9,2.82-6.66,4.23-10.41,4.23Z"/><path class="cls-2" d="M1223.66,615.55c-3.75,0-7.51-1.41-10.41-4.23l-163.23-159.01c-5.9-5.75-6.03-15.19-.28-21.1,5.75-5.9,15.19-6.03,21.1-.28l163.23,159.01c5.9,5.75,6.03,15.19,.28,21.1-2.92,3-6.8,4.51-10.69,4.51Z"/><g><path class="cls-2" d="M717.15,752.27v31.76c0,9.35-7.6,16.95-16.94,16.95s-16.95-7.6-16.95-16.95v-57.02l-29.84-22.24v79.27c0,25.8,20.99,46.79,46.79,46.79s46.78-20.99,46.78-46.79v-9.52l-29.84-22.24Z"/><path class="cls-2" d="M916.27,731.17c3.13,0,6.23-.99,8.82-2.88,3.84-2.81,6.1-7.28,6.1-12.03v-51.72c13.55-.47,26.18-5.99,35.75-15.69,10.01-10.15,15.42-23.6,15.22-37.87-.19-13.55-5.55-26.39-15.09-36.16-9.55-9.77-22.27-15.43-35.81-15.92-.02,0-.05,0-.07,0v-63.5c0-4.75-2.27-9.22-6.1-12.03-3.84-2.81-8.78-3.62-13.31-2.19l-149.5,47.28h-126.41c-8.24,0-14.92,6.68-14.92,14.92v8.69h-21.79l51.62,38.48v-32.25h98.85v95.09h-14.56l49.47,36.88,127.23,40.23c1.47,.47,2.99,.69,4.5,.69Zm14.92-142.4c11.59,.95,20.98,10.88,21.14,22.61,.09,6.22-2.27,12.08-6.63,16.5-3.92,3.97-9.02,6.33-14.51,6.77v-45.89Zm-29.84,107.12l-121.88-38.54v-103.05l121.88-38.54v180.14Z"/></g></g><rect class="cls-1" x="56.77" y="-25.92" width="1420.8" height="1420.8"/><path class="cls-2" d="M773.64,1538.28c-103.27,0-203.45-20.23-297.78-60.13-91.1-38.53-172.91-93.69-243.16-163.94-70.25-70.25-125.41-152.06-163.94-243.16-39.9-94.33-60.13-194.51-60.13-297.78s20.23-203.45,60.13-297.78c38.53-91.1,93.69-172.91,163.94-243.16,70.25-70.25,152.06-125.41,243.16-163.94,94.33-39.9,194.51-60.13,297.78-60.13s203.45,20.23,297.78,60.13c91.1,38.53,172.91,93.69,243.16,163.94,70.25,70.25,125.41,152.06,163.94,243.16,39.9,94.33,60.13,194.51,60.13,297.78s-20.23,203.45-60.13,297.78c-38.53,91.1-93.69,172.91-163.94,243.16-70.25,70.25-152.06,125.41-243.16,163.94-94.33,39.9-194.51,60.13-297.78,60.13Zm0-1488C374.98,50.28,50.64,374.62,50.64,773.28s324.34,723,723,723,723-324.34,723-723S1172.3,50.28,773.64,50.28Z"/><rect class="cls-2" x="763.76" y="8.64" width="50" height="1481.77" transform="translate(-283.58 933.94) rotate(-53.3)"/></svg>