<?xml version="1.0" encoding="UTF-8"?><svg id="Layer_1" xmlns="http://www.w3.org/2000/svg" viewBox="0 0 1551.24 1546.56"><defs><style>.cls-1{fill:none;}.cls-2{fill:#2e3334;}</style></defs><g><g><path class="cls-2" d="M553.54,1316.78c-5.52,0-10.63-2.95-13.39-7.73l-122.57-212.29h-72.1c-61.85,0-112.16-50.32-112.16-112.16v-415.91c0-61.85,50.32-112.16,112.16-112.16h705.9c61.85,0,112.16,50.32,112.16,112.16v26.14c0,8.54-6.92,15.46-15.46,15.46s-15.46-6.92-15.46-15.46v-26.14c0-44.79-36.44-81.23-81.23-81.23H345.48c-44.79,0-81.23,36.44-81.23,81.23v415.91c0,44.79,36.44,81.24,81.23,81.24h81.03c5.52,0,10.63,2.95,13.39,7.73l113.64,196.83,113.64-196.83c2.76-4.78,7.87-7.73,13.39-7.73h370.81c44.79,0,81.23-36.44,81.23-81.24v-223.6c0-8.54,6.92-15.46,15.46-15.46s15.46,6.92,15.46,15.46v223.6c0,61.85-50.32,112.16-112.16,112.16h-361.88l-122.57,212.29c-2.76,4.78-7.87,7.73-13.39,7.73Z"/><g><path class="cls-2" d="M463.34,855.1c-43.26,0-78.46-35.2-78.46-78.46s35.2-78.46,78.46-78.46,78.46,35.2,78.46,78.46-35.2,78.46-78.46,78.46Zm0-126c-26.21,0-47.54,21.32-47.54,47.54s21.32,47.54,47.54,47.54,47.54-21.32,47.54-47.54-21.32-47.54-47.54-47.54Z"/><path class="cls-2" d="M698.43,855.1c-43.26,0-78.46-35.2-78.46-78.46s35.2-78.46,78.46-78.46,78.46,35.2,78.46,78.46-35.2,78.46-78.46,78.46Zm0-126c-26.21,0-47.54,21.32-47.54,47.54s21.32,47.54,47.54,47.54,47.54-21.32,47.54-47.54-21.32-47.54-47.54-47.54Z"/><path class="cls-2" d="M902.61,847c-2.57,0-5.18-.64-7.58-2-24.65-13.9-39.97-40.1-39.97-68.38,0-43.26,35.2-78.46,78.46-78.46,29.47,0,56.19,16.27,69.73,42.47,3.92,7.59,.95,16.92-6.64,20.84-7.59,3.92-16.92,.95-20.84-6.64-8.21-15.88-24.4-25.74-42.26-25.74-26.21,0-47.53,21.32-47.53,47.53,0,17.13,9.28,33.01,24.23,41.43,7.44,4.19,10.07,13.62,5.88,21.06-2.84,5.04-8.08,7.87-13.49,7.87Z"/></g></g><g><path class="cls-2" d="M1273.77,655.23c-4.05,0-8.1-1.58-11.13-4.73l-83.03-86.09c-5.93-6.15-5.75-15.94,.4-21.86,6.15-5.93,15.94-5.75,21.86,.4l83.03,86.09c5.93,6.15,5.75,15.94-.4,21.86-3,2.89-6.87,4.33-10.73,4.33Z"/><g><path class="cls-2" d="M944.08,973.18c-4.05,0-8.1-1.58-11.13-4.73-5.93-6.15-5.75-15.94,.4-21.86l381.1-367.53c8.95-8.63,14.11-20.1,14.53-32.29,.41-11.99-3.86-23.25-12.02-31.72-16.97-17.6-45.71-17.52-64.06,.18l-381.1,367.53c-6.15,5.93-15.94,5.75-21.87-.4-5.93-6.15-5.75-15.94,.4-21.86l381.1-367.53c30.63-29.54,78.98-29.26,107.79,.61,14.03,14.55,21.37,33.81,20.67,54.25-.69,20.26-9.21,39.26-23.97,53.5l-381.1,367.53c-3,2.89-6.87,4.33-10.73,4.33Z"/><path class="cls-2" d="M799.56,1029.48c-4.12,0-8.16-1.65-11.13-4.73-4.33-4.49-5.54-11.14-3.07-16.87l61.5-142.39c2.05-4.75,6.34-8.16,11.43-9.08,5.09-.92,10.3,.76,13.9,4.48l83.02,86.09c3.59,3.72,5.08,9,3.97,14.05-1.11,5.05-4.67,9.22-9.49,11.09l-144.52,56.3c-1.82,.71-3.72,1.05-5.61,1.05Zm66.48-130.4l-37.62,87.1,88.4-34.44-50.79-52.66Z"/></g></g></g><rect class="cls-1" x="56.77" y="-25.92" width="1420.8" height="1420.8"/><path class="cls-2" d="M773.64,1538.28c-103.27,0-203.45-20.23-297.78-60.13-91.1-38.53-172.91-93.69-243.16-163.94-70.25-70.25-125.41-152.06-163.94-243.16-39.9-94.33-60.13-194.51-60.13-297.78s20.23-203.45,60.13-297.78c38.53-91.1,93.69-172.91,163.94-243.16,70.25-70.25,152.06-125.41,243.16-163.94,94.33-39.9,194.51-60.13,297.78-60.13s203.45,20.23,297.78,60.13c91.1,38.53,172.91,93.69,243.16,163.94,70.25,70.25,125.41,152.06,163.94,243.16,39.9,94.33,60.13,194.51,60.13,297.78s-20.23,203.45-60.13,297.78c-38.53,91.1-93.69,172.91-163.94,243.16-70.25,70.25-152.06,125.41-243.16,163.94-94.33,39.9-194.51,60.13-297.78,60.13Zm0-1488C374.98,50.28,50.64,374.62,50.64,773.28s324.34,723,723,723,723-324.34,723-723S1172.3,50.28,773.64,50.28Z"/><rect class="cls-2" x="763.76" y="8.64" width="50" height="1481.77" transform="translate(-283.58 933.94) rotate(-53.3)"/></svg>