<?xml version="1.0" encoding="UTF-8"?><svg id="Layer_1" xmlns="http://www.w3.org/2000/svg" viewBox="0 0 1543.95 1273.93"><defs><style>.cls-1{fill:none;}.cls-2{fill:#2e3334;}</style></defs><g><path class="cls-2" d="M1515.98,1268.97H27.98c-11.6,0-21-9.4-21-21V25.96C6.98,14.36,16.38,4.96,27.98,4.96H1515.98c11.6,0,21,9.4,21,21v237c0,11.6-9.4,21-21,21s-21-9.4-21-21V46.96H48.98V1226.97H1515.98c11.6,0,21,9.4,21,21s-9.4,21-21,21Z"/><path class="cls-2" d="M1515.98,1268.97H27.98c-11.6,0-21-9.4-21-21V262.96c0-11.6,9.4-21,21-21H1515.98c11.6,0,21,9.4,21,21v985c0,11.6-9.4,21-21,21ZM48.98,1226.97H1494.98V283.96H48.98v943Z"/><g><rect class="cls-2" x="179.97" y="109.46" width="70" height="70" rx="30.78" ry="30.78"/><rect class="cls-2" x="317.97" y="109.46" width="70" height="70" rx="30.78" ry="30.78"/><rect class="cls-2" x="455.97" y="109.46" width="70" height="70" rx="30.78" ry="30.78"/></g><g><g><path class="cls-2" d="M1054.13,1021.03c-29.92,0-54.26-24.34-54.26-54.26s24.34-54.26,54.26-54.26,54.26,24.34,54.26,54.26-24.34,54.26-54.26,54.26Zm0-78.38c-13.3,0-24.11,10.82-24.11,24.11s10.82,24.12,24.11,24.12,24.12-10.82,24.12-24.12-10.82-24.11-24.12-24.11Z"/><g><path class="cls-2" d="M764.67,1076.54c-6.38,0-12.3-4.08-14.35-10.48-10.05-31.37-15.15-64.13-15.15-97.35,0-43.03,8.44-84.81,25.08-124.16,16.07-37.98,39.05-72.09,68.33-101.36,29.28-29.28,63.38-52.26,101.36-68.33,39.35-16.65,81.13-25.09,124.16-25.09s84.81,8.44,124.16,25.09c37.98,16.07,72.09,39.06,101.36,68.33,29.27,29.27,52.26,63.38,68.33,101.36,16.64,39.35,25.08,81.13,25.08,124.16,0,33.22-5.1,65.97-15.15,97.35-1.22,3.81-3.9,6.97-7.46,8.8-3.55,1.83-7.69,2.17-11.5,.95l-68.75-22.02c-3.81-1.22-6.97-3.9-8.8-7.46-1.83-3.55-2.17-7.69-.95-11.5,6.81-21.27,10.27-43.52,10.27-66.13,0-119.43-97.16-216.59-216.59-216.59s-216.59,97.16-216.59,216.59c0,22.61,3.45,44.86,10.27,66.13,1.22,3.81,.88,7.94-.95,11.5-1.83,3.55-5,6.24-8.8,7.46l-68.75,22.02c-1.53,.49-3.08,.72-4.6,.72Zm289.44-396.62c-38.98,0-76.8,7.64-112.42,22.7-34.39,14.55-65.27,35.37-91.79,61.88-26.51,26.52-47.33,57.4-61.88,91.79-15.06,35.62-22.7,73.44-22.7,112.42,0,25.02,3.19,49.73,9.49,73.67l40.11-12.85c-5.01-19.78-7.55-40.18-7.55-60.83,0-136.05,110.69-246.74,246.74-246.74s246.74,110.69,246.74,246.74c0,20.65-2.54,41.05-7.55,60.83l40.11,12.85c6.3-23.94,9.49-48.66,9.49-73.67,0-38.98-7.64-76.8-22.7-112.42-14.55-34.39-35.37-65.27-61.88-91.79-26.52-26.52-57.4-47.34-91.79-61.88-35.62-15.07-73.44-22.7-112.42-22.7Z"/><path class="cls-2" d="M1054.11,801.39c-8.33,0-15.07-6.75-15.07-15.07v-48.42c0-8.32,6.75-15.07,15.07-15.07s15.07,6.75,15.07,15.07v48.42c0,8.32-6.75,15.07-15.07,15.07Z"/><path class="cls-2" d="M926.43,853.33c-3.86,0-7.72-1.47-10.66-4.41l-34.24-34.24c-5.89-5.89-5.89-15.43,0-21.32,5.89-5.89,15.43-5.89,21.32,0l34.24,34.24c5.89,5.89,5.89,15.43,0,21.32-2.94,2.94-6.8,4.41-10.66,4.41Z"/><path class="cls-2" d="M872.87,980.34h-48.42c-8.33,0-15.07-6.75-15.07-15.07s6.75-15.07,15.07-15.07h48.42c8.33,0,15.07,6.75,15.07,15.07s-6.75,15.07-15.07,15.07Z"/><path class="cls-2" d="M1281.48,982.63h-48.42c-8.32,0-15.07-6.75-15.07-15.07s6.75-15.07,15.07-15.07h48.42c8.32,0,15.07,6.75,15.07,15.07s-6.75,15.07-15.07,15.07Z"/><path class="cls-2" d="M1181.12,854.95c-3.86,0-7.72-1.47-10.66-4.41-5.89-5.89-5.89-15.43,0-21.32l34.24-34.24c5.89-5.89,15.43-5.89,21.32,0,5.89,5.89,5.89,15.43,0,21.32l-34.24,34.24c-2.94,2.94-6.8,4.41-10.66,4.41Z"/><path class="cls-2" d="M1070.71,946.34c-2.13,0-4.3-.45-6.36-1.42-7.55-3.52-10.81-12.49-7.29-20.03l43.32-92.9c3.52-7.55,12.49-10.81,20.03-7.29,7.55,3.52,10.81,12.49,7.29,20.03l-43.32,92.9c-2.56,5.48-8,8.71-13.67,8.71Z"/></g></g><path class="cls-2" d="M1265.57,413.39H278.39c-11.6,0-21-9.4-21-21s9.4-21,21-21h987.18c11.6,0,21,9.4,21,21s-9.4,21-21,21Z"/><path class="cls-2" d="M509.4,513.3h-231.02c-11.6,0-21-9.4-21-21s9.4-21,21-21h231.02c11.6,0,21,9.4,21,21s-9.4,21-21,21Z"/></g></g><rect class="cls-1" x="-228.02" y="-363.04" width="2000" height="2000"/><g><g><g><path class="cls-2" d="M318.93,1085.41c-2.55,0-4.91-1.36-6.18-3.57l-56.58-98h-33.28c-28.55,0-51.77-23.23-51.77-51.77v-191.99c0-28.55,23.23-51.77,51.77-51.77h325.85c28.55,0,51.77,23.23,51.77,51.77v12.07c0,3.94-3.2,7.14-7.14,7.14s-7.14-3.2-7.14-7.14v-12.07c0-20.68-16.82-37.5-37.5-37.5H222.89c-20.68,0-37.5,16.82-37.5,37.5v191.99c0,20.68,16.82,37.5,37.5,37.5h37.4c2.55,0,4.91,1.36,6.18,3.57l52.46,90.86,52.46-90.86c1.27-2.21,3.63-3.57,6.18-3.57h171.17c20.68,0,37.5-16.82,37.5-37.5v-103.22c0-3.94,3.2-7.14,7.14-7.14s7.14,3.2,7.14,7.14v103.22c0,28.55-23.23,51.77-51.77,51.77h-167.05l-56.58,98c-1.27,2.21-3.63,3.57-6.18,3.57Z"/><path class="cls-2" d="M318.93,1090.41c-4.32,0-8.35-2.33-10.51-6.07l-55.13-95.5h-30.4c-31.31,0-56.77-25.47-56.77-56.78v-191.98c0-31.31,25.47-56.77,56.77-56.77h325.85c31.31,0,56.77,25.47,56.77,56.77v12.07c0,6.69-5.44,12.14-12.14,12.14s-12.14-5.45-12.14-12.14v-12.07c0-17.92-14.58-32.5-32.5-32.5H222.89c-17.92,0-32.5,14.58-32.5,32.5v191.98c0,17.92,14.58,32.5,32.5,32.5h37.4c4.32,0,8.35,2.33,10.51,6.07l48.13,83.36,48.13-83.36c2.16-3.74,6.19-6.07,10.51-6.07h171.17c17.92,0,32.5-14.58,32.5-32.5v-103.21c0-6.69,5.45-12.14,12.14-12.14s12.14,5.45,12.14,12.14v103.21c0,31.31-25.47,56.78-56.77,56.78h-164.16l-55.13,95.5c-2.16,3.74-6.19,6.07-10.51,6.07Zm-96.04-397.1c-25.79,0-46.77,20.98-46.77,46.77v191.98c0,25.79,20.98,46.78,46.77,46.78h36.17l58.02,100.5c.38,.66,1.09,1.07,1.85,1.07s1.47-.41,1.85-1.07l58.02-100.5h169.93c25.79,0,46.77-20.98,46.77-46.78v-103.21c0-1.18-.96-2.14-2.14-2.14s-2.14,.96-2.14,2.14v103.21c0,23.43-19.06,42.5-42.5,42.5h-171.17c-.76,0-1.47,.41-1.85,1.07l-56.79,98.36-56.79-98.36c-.38-.66-1.09-1.07-1.85-1.07h-37.4c-23.43,0-42.5-19.07-42.5-42.5v-191.98c0-23.43,19.06-42.5,42.5-42.5h325.85c23.43,0,42.5,19.07,42.5,42.5v12.07c0,1.18,.96,2.14,2.14,2.14s2.14-.96,2.14-2.14v-12.07c0-25.79-20.98-46.77-46.77-46.77H222.89Z"/></g><g><g><path class="cls-2" d="M277.29,872.3c-19.97,0-36.22-16.25-36.22-36.22s16.25-36.22,36.22-36.22,36.22,16.25,36.22,36.22-16.25,36.22-36.22,36.22Zm0-58.16c-12.1,0-21.94,9.84-21.94,21.94s9.84,21.94,21.94,21.94,21.94-9.84,21.94-21.94-9.84-21.94-21.94-21.94Z"/><path class="cls-2" d="M277.29,877.3c-22.73,0-41.22-18.49-41.22-41.22s18.49-41.22,41.22-41.22,41.22,18.49,41.22,41.22-18.49,41.22-41.22,41.22Zm0-72.44c-17.21,0-31.22,14-31.22,31.22s14,31.22,31.22,31.22,31.22-14,31.22-31.22-14-31.22-31.22-31.22Zm0,58.16c-14.86,0-26.94-12.09-26.94-26.94s12.09-26.94,26.94-26.94,26.94,12.09,26.94,26.94-12.09,26.94-26.94,26.94Zm0-43.89c-9.34,0-16.94,7.6-16.94,16.94s7.6,16.94,16.94,16.94,16.94-7.6,16.94-16.94-7.6-16.94-16.94-16.94Z"/></g><g><path class="cls-2" d="M385.81,872.3c-19.97,0-36.22-16.25-36.22-36.22s16.25-36.22,36.22-36.22,36.22,16.25,36.22,36.22-16.25,36.22-36.22,36.22Zm0-58.16c-12.1,0-21.94,9.84-21.94,21.94s9.84,21.94,21.94,21.94,21.94-9.84,21.94-21.94-9.84-21.94-21.94-21.94Z"/><path class="cls-2" d="M385.81,877.3c-22.73,0-41.22-18.49-41.22-41.22s18.49-41.22,41.22-41.22,41.22,18.49,41.22,41.22-18.49,41.22-41.22,41.22Zm0-72.44c-17.21,0-31.22,14-31.22,31.22s14,31.22,31.22,31.22,31.22-14,31.22-31.22-14-31.22-31.22-31.22Zm0,58.16c-14.86,0-26.94-12.09-26.94-26.94s12.09-26.94,26.94-26.94,26.94,12.09,26.94,26.94-12.09,26.94-26.94,26.94Zm0-43.89c-9.34,0-16.94,7.6-16.94,16.94s7.6,16.94,16.94,16.94,16.94-7.6,16.94-16.94-7.6-16.94-16.94-16.94Z"/></g><g><path class="cls-2" d="M480.06,868.56c-1.19,0-2.39-.3-3.5-.92-11.38-6.41-18.45-18.51-18.45-31.56,0-19.97,16.25-36.22,36.22-36.22,13.6,0,25.94,7.51,32.19,19.6,1.81,3.5,.44,7.81-3.06,9.62-3.5,1.81-7.81,.44-9.62-3.06-3.79-7.33-11.26-11.88-19.51-11.88-12.1,0-21.94,9.84-21.94,21.94,0,7.91,4.28,15.24,11.18,19.13,3.43,1.94,4.65,6.29,2.71,9.72-1.31,2.33-3.73,3.63-6.22,3.63Z"/><path class="cls-2" d="M480.06,873.56c-2.08,0-4.14-.54-5.95-1.56-12.95-7.3-21-21.06-21-35.92,0-22.73,18.49-41.22,41.22-41.22,15.48,0,29.52,8.55,36.63,22.31,3.07,5.94,.74,13.28-5.21,16.36-2.88,1.49-6.17,1.76-9.26,.78-3.09-.98-5.61-3.11-7.1-5.99-2.93-5.66-8.7-9.18-15.07-9.18-9.34,0-16.94,7.6-16.94,16.94,0,6.11,3.31,11.77,8.64,14.77,2.82,1.59,4.86,4.19,5.73,7.31,.87,3.12,.47,6.4-1.12,9.22-2.15,3.81-6.2,6.18-10.58,6.18Zm14.27-68.7c-17.21,0-31.22,14-31.22,31.22,0,11.25,6.09,21.68,15.9,27.21,.33,.18,.68,.28,1.04,.28,.61,0,1.42-.29,1.87-1.09,.38-.67,.29-1.31,.2-1.62s-.34-.91-1.01-1.29c-8.47-4.77-13.73-13.77-13.73-23.48,0-14.86,12.09-26.94,26.94-26.94,10.12,0,19.3,5.59,23.95,14.59,.35,.68,.94,.96,1.25,1.05,.32,.1,.95,.22,1.63-.14,.69-.35,.96-.94,1.06-1.25,.1-.31,.22-.95-.14-1.63-5.39-10.42-16.02-16.9-27.75-16.9Z"/></g></g></g><g><g><path class="cls-2" d="M651.4,780.04c-1.87,0-3.74-.73-5.14-2.18l-38.33-39.74c-2.74-2.84-2.65-7.36,.18-10.09,2.84-2.74,7.36-2.65,10.09,.18l38.33,39.74c2.74,2.84,2.65,7.36-.18,10.09-1.38,1.34-3.17,2-4.95,2Z"/><path class="cls-2" d="M651.4,785.04c-3.33,0-6.43-1.32-8.74-3.71l-38.33-39.74c-4.65-4.82-4.51-12.52,.31-17.16,2.33-2.25,5.4-3.44,8.65-3.4,3.24,.06,6.27,1.38,8.52,3.71l38.33,39.74c4.65,4.82,4.51,12.52-.31,17.16-2.27,2.19-5.27,3.4-8.43,3.4Zm-38.32-54.02c-.34,0-.95,.08-1.48,.6-.85,.82-.87,2.18-.06,3.02l38.32,39.74c.55,.57,1.2,.65,1.54,.65s.94-.08,1.48-.6c.85-.82,.87-2.17,.05-3.02l-38.33-39.74c-.54-.55-1.17-.65-1.5-.65-.01,0-.02,0-.04,0Z"/></g><g><g><path class="cls-2" d="M499.21,926.81c-1.87,0-3.74-.73-5.14-2.18-2.74-2.84-2.65-7.36,.18-10.09l175.92-169.65c4.13-3.98,6.51-9.28,6.71-14.91,.19-5.53-1.78-10.73-5.55-14.64-7.83-8.12-21.1-8.09-29.57,.08l-175.92,169.65c-2.84,2.74-7.36,2.65-10.09-.18-2.74-2.84-2.65-7.36,.18-10.09l175.92-169.65c14.14-13.63,36.46-13.51,49.76,.28,6.48,6.72,9.87,15.61,9.54,25.04-.32,9.35-4.25,18.12-11.06,24.69l-175.92,169.65c-1.38,1.34-3.17,2-4.95,2Z"/><path class="cls-2" d="M499.21,931.81c-3.33,0-6.43-1.32-8.74-3.71-4.65-4.82-4.51-12.52,.31-17.16l175.92-169.66c3.19-3.08,5.03-7.16,5.18-11.48,.14-4.17-1.33-8.08-4.15-11-2.82-2.93-6.69-4.54-10.89-4.54h-.05c-4.3,.01-8.4,1.7-11.57,4.75l-175.92,169.65c-4.82,4.65-12.52,4.51-17.16-.31-4.65-4.82-4.51-12.52,.31-17.16l175.92-169.65c16.12-15.55,41.61-15.36,56.83,.41,7.42,7.7,11.31,17.89,10.94,28.68-.36,10.66-4.84,20.64-12.59,28.12l-175.92,169.65c-2.27,2.19-5.27,3.4-8.42,3.4Zm157.64-227.55c6.94,0,13.36,2.7,18.08,7.6,4.72,4.89,7.18,11.38,6.95,18.28-.24,6.93-3.16,13.44-8.23,18.33l-175.92,169.65c-.85,.82-.87,2.17-.05,3.02,.55,.57,1.2,.65,1.54,.65s.94-.08,1.48-.6l175.92-169.65c5.88-5.67,9.26-13.22,9.54-21.27,.28-8.07-2.62-15.67-8.14-21.4-11.38-11.8-30.53-11.87-42.69-.15l-175.92,169.65c-.85,.82-.87,2.18-.05,3.02,.82,.85,2.17,.87,3.02,.05l175.92-169.65c5.03-4.85,11.59-7.53,18.48-7.55h.08Z"/></g><g><path class="cls-2" d="M432.5,952.79c-1.9,0-3.77-.76-5.14-2.18-2-2.07-2.56-5.14-1.42-7.79l28.39-65.73c.95-2.19,2.93-3.77,5.28-4.19,2.35-.43,4.76,.35,6.41,2.07l38.32,39.74c1.66,1.72,2.35,4.15,1.83,6.49-.51,2.33-2.16,4.25-4.38,5.12l-66.71,25.99c-.84,.33-1.72,.49-2.59,.49Zm30.69-60.19l-17.36,40.21,40.81-15.9-23.44-24.31Z"/><path class="cls-2" d="M432.5,957.79c-3.28,0-6.46-1.35-8.74-3.71-3.41-3.53-4.35-8.73-2.4-13.24l28.39-65.73c1.61-3.74,4.97-6.4,8.97-7.13,4-.72,8.08,.59,10.91,3.52l38.33,39.74c2.83,2.93,3.99,7.05,3.12,11.03-.87,3.98-3.66,7.23-7.45,8.71l-66.71,25.99c-1.41,.55-2.89,.83-4.4,.83Zm28.39-80c-.13,0-.26,.01-.39,.04-.7,.13-1.29,.6-1.58,1.25l-28.39,65.73c-.34,.79-.18,1.71,.42,2.33,.59,.61,1.53,.82,2.31,.51l66.71-25.99c.67-.26,1.16-.83,1.31-1.53,.15-.7-.05-1.43-.55-1.94l-38.32-39.74c-.41-.42-.96-.65-1.54-.65Zm-24.4,64.02l25.09-58.08,33.87,35.12-58.95,22.96Zm28.31-40.33l-9.64,22.33,22.66-8.83-13.02-13.5Z"/></g></g></g></g></svg>