<?xml version="1.0" encoding="UTF-8"?><svg id="Layer_1" xmlns="http://www.w3.org/2000/svg" viewBox="0 0 1525.95 1546.95"><defs><style>.cls-1{fill:#2e3334;}</style></defs><path class="cls-1" d="M1230.6,1542.98c-6.25,0-12.38-2.44-16.98-7.03l-205.23-205.23-936.53,.42c-22.98,0-43.56-11.88-55.04-31.77-11.49-19.89-11.49-43.65,0-63.55L707.95,38.75c11.48-19.89,32.06-31.77,55.03-31.77h0c22.98,0,43.55,11.88,55.03,31.77l691.13,1197.07c11.49,19.9,11.48,43.66,0,63.55-11.49,19.89-32.06,31.77-55.03,31.77h-199.51v187.84c0,9.71-5.85,18.46-14.82,22.17-2.97,1.23-6.09,1.83-9.18,1.83Zm-212.27-260.27c6.37,0,12.47,2.53,16.97,7.03l171.3,171.29v-153.9c0-13.25,10.75-24,24-24h223.51c8.1,0,12.12-5.44,13.47-7.77,1.35-2.34,4.05-8.53,0-15.55L776.44,62.75c-4.05-7.01-10.76-7.77-13.46-7.77s-9.41,.76-13.46,7.77L58.38,1259.82c-4.05,7.01-1.35,13.21,0,15.55,1.35,2.34,5.36,7.77,13.47,7.77l946.47-.42h.01Z"/><g><path class="cls-1" d="M762.98,997.65c-40.55,0-73.51-31.74-75.04-72.26l-17.07-452.33c-.01-.3-.02-.6-.02-.91,0-50.8,41.33-92.13,92.13-92.13s92.13,41.33,92.13,92.13c0,.3,0,.6-.02,.91l-17.07,452.33c-1.53,40.52-34.49,72.26-75.04,72.26Zm-44.13-525.9l17.05,451.83c.55,14.62,12.44,26.07,27.08,26.07s26.52-11.45,27.08-26.07l17.05-451.82c-.22-24.15-19.93-43.73-44.13-43.73s-43.91,19.58-44.13,43.72Z"/><path class="cls-1" d="M762.98,1169.93c-41.41,0-75.1-33.69-75.1-75.1s33.69-75.1,75.1-75.1,75.1,33.69,75.1,75.1-33.69,75.1-75.1,75.1Zm0-102.19c-14.94,0-27.1,12.16-27.1,27.1s12.16,27.1,27.1,27.1,27.1-12.16,27.1-27.1-12.16-27.1-27.1-27.1Z"/></g></svg>