<?xml version="1.0" encoding="UTF-8"?><svg id="Layer_1" xmlns="http://www.w3.org/2000/svg" viewBox="0 0 1359.87 1546.95"><defs><style>.cls-1{fill:none;}.cls-2{fill:#fff;}.cls-3{fill:#2e3334;}</style></defs><g><g><g><path class="cls-3" d="M1308.1,1517.4H255.84c-4.56,0-8.93-1.81-12.16-5.04-3.22-3.22-5.03-7.6-5.03-12.16l.2-705.54c0-9.49,7.7-17.18,17.19-17.18h0c9.49,0,17.19,7.7,17.18,17.19l-.19,688.35h1017.88l-.19-688.35c0-9.49,7.69-17.19,17.18-17.19h0c9.49,0,17.19,7.69,17.19,17.18l.2,705.54c0,4.56-1.81,8.93-5.03,12.16-3.22,3.23-7.6,5.04-12.16,5.04Z"/><path class="cls-3" d="M782.15,1296.32h-.38c-4.32,0-8.47-1.62-11.65-4.55l-100-92.14-237.7-219.05-188.04-173.28c-6.98-6.43-7.43-17.31-.99-24.29,6.43-6.98,17.31-7.42,24.29-.99l188.04,173.28,237.7,219.05,88.54,81.58,88.54-81.58,237.7-219.05,188.04-173.28c6.98-6.43,17.85-5.99,24.29,.99,6.43,6.98,5.99,17.85-.99,24.29l-188.04,173.28-237.7,219.05-100,92.14c-3.17,2.92-7.33,4.55-11.65,4.55Z"/><path class="cls-3" d="M1308.08,1517.4c-3.54,0-7.1-1.09-10.17-3.34l-425.94-313.23c-7.65-5.62-9.29-16.38-3.66-24.03,5.62-7.65,16.38-9.29,24.03-3.66l425.94,313.23c7.65,5.62,9.29,16.38,3.66,24.03-3.37,4.58-8.58,7.01-13.86,7.01Z"/><path class="cls-3" d="M255.85,1517.4c-5.28,0-10.49-2.43-13.86-7.01-5.62-7.65-3.98-18.41,3.66-24.03l425.94-313.23c7.65-5.62,18.41-3.98,24.03,3.66,5.62,7.65,3.98,18.41-3.66,24.03l-425.94,313.23c-3.07,2.25-6.63,3.34-10.17,3.34Z"/></g><path class="cls-3" d="M1119.84,985.12c-9.49,0-17.19-7.7-17.19-17.19V441.25H461.28V967.93c0,9.49-7.7,17.19-17.19,17.19s-17.19-7.7-17.19-17.19V424.06c0-9.49,7.7-17.19,17.19-17.19h675.75c9.49,0,17.19,7.7,17.19,17.19V967.93c0,9.49-7.7,17.19-17.19,17.19Z"/><path class="cls-3" d="M639.02,441.25c-4.42,0-8.85-1.7-12.21-5.09-6.68-6.74-6.64-17.62,.1-24.31l142.95-141.73c6.74-6.68,17.62-6.64,24.31,.1,6.68,6.74,6.64,17.62-.1,24.31l-142.95,141.73c-3.35,3.32-7.73,4.98-12.1,4.98Z"/><path class="cls-3" d="M925.08,441.25c-4.37,0-8.74-1.66-12.09-4.98l-143.11-141.73c-6.74-6.68-6.8-17.56-.12-24.31,6.68-6.75,17.56-6.8,24.31-.12l143.11,141.73c6.74,6.68,6.8,17.56,.12,24.31-3.36,3.39-7.79,5.09-12.21,5.09Z"/><path class="cls-3" d="M256.03,811.86c-4.47,0-8.94-1.74-12.31-5.19-6.62-6.8-6.48-17.68,.32-24.31l188.06-183.2c6.8-6.62,17.68-6.48,24.31,.32,6.62,6.8,6.48,17.68-.32,24.31l-188.06,183.2c-3.34,3.25-7.67,4.88-11.99,4.88Z"/><path class="cls-3" d="M1307.9,811.86c-4.32,0-8.65-1.62-11.99-4.88l-188.06-183.2c-6.8-6.62-6.94-17.51-.32-24.31,6.62-6.8,17.5-6.94,24.3-.32l188.06,183.2c6.8,6.62,6.94,17.51,.32,24.31-3.37,3.46-7.84,5.19-12.31,5.19Z"/><g><g><path class="cls-3" d="M704.82,1059.87c-29.72,0-53.9-24.18-53.9-53.9v-133.35c0-9.49,7.7-17.19,17.19-17.19h73.42c9.49,0,17.19,7.7,17.19,17.19v133.35c0,29.72-24.18,53.9-53.9,53.9Zm-19.53-170.06v116.16c0,10.77,8.76,19.53,19.53,19.53s19.52-8.76,19.52-19.53v-116.16h-39.05Z"/><path class="cls-3" d="M778.95,889.81h-148.27c-9.49,0-17.19-7.7-17.19-17.19v-143.93c0-9.49,7.7-17.19,17.19-17.19h148.27c9.49,0,17.19,7.7,17.19,17.19v143.93c0,9.49-7.69,17.19-17.19,17.19Zm-131.08-34.38h113.89v-109.55h-113.89v109.55Z"/><path class="cls-3" d="M630.68,862.6h-59.59c-9.49,0-17.19-7.7-17.19-17.19v-89.52c0-9.49,7.7-17.19,17.19-17.19h59.59c9.49,0,17.19,7.7,17.19,17.19v89.52c0,9.49-7.7,17.19-17.19,17.19Zm-42.41-34.38h25.22v-55.15h-25.22v55.15Z"/><path class="cls-3" d="M953.75,945.07c-1.74,0-3.48-.26-5.18-.8l-174.8-55.27c-7.15-2.26-12.01-8.89-12.01-16.39v-143.91c0-7.5,4.86-14.13,12.01-16.39l174.8-55.28c5.22-1.65,10.92-.72,15.34,2.52,4.42,3.24,7.03,8.39,7.03,13.87v254.46c0,5.48-2.61,10.63-7.03,13.87-2.98,2.19-6.55,3.32-10.16,3.32Zm-157.61-85.05l140.42,44.4v-207.54l-140.42,44.41v118.73Z"/><path class="cls-3" d="M968.77,868.35c-7.17,0-14.21-1.24-20.91-3.68-8.92-3.25-13.51-13.12-10.26-22.04,3.25-8.92,13.12-13.51,22.04-10.26,2.92,1.06,5.99,1.6,9.13,1.6,7.15,0,13.86-2.81,18.88-7.9,5.03-5.09,7.74-11.85,7.64-19.01-.19-13.9-11.64-25.62-25.52-26.12-3.49-.13-6.9,.41-10.13,1.58-8.92,3.25-18.78-1.34-22.03-10.26-3.25-8.92,1.34-18.78,10.26-22.03,7.42-2.7,15.19-3.92,23.15-3.64,15.6,.56,30.26,7.08,41.26,18.34,11,11.25,17.17,26.05,17.39,41.66,.23,16.44-6,31.93-17.54,43.63-11.53,11.69-26.93,18.13-43.35,18.13Z"/></g><g><path class="cls-3" d="M1022.75,542.59h-476.89c-9.49,0-17.19-7.7-17.19-17.19s7.7-17.19,17.19-17.19h476.89c9.49,0,17.19,7.7,17.19,17.19s-7.7,17.19-17.19,17.19Z"/><path class="cls-3" d="M759.83,625.74h-213.98c-9.49,0-17.19-7.7-17.19-17.19s7.7-17.19,17.19-17.19h213.98c9.49,0,17.19,7.7,17.19,17.19s-7.7,17.19-17.19,17.19Z"/></g></g></g><rect class="cls-1" x="-36.51" y="72.8" width="1636.94" height="1636.94"/></g><g><polygon class="cls-2" points="709.92 590.76 371.81 20.48 31.6 602.06 54.21 613.37 498.06 610.28 542.14 658.72 588.08 710.65 592.7 609.63 705.4 608.84 709.92 590.76"/><g><path class="cls-3" d="M588.55,721.56c-2.89,0-5.72-1.13-7.84-3.25l-94.82-94.82-432.7,.19c-10.62,0-20.12-5.49-25.43-14.68-5.31-9.19-5.31-20.17,0-29.36L347.07,26.57c5.31-9.19,14.81-14.68,25.43-14.68h0c10.62,0,20.12,5.49,25.43,14.68l319.32,553.08c5.31,9.2,5.3,20.17,0,29.36-5.31,9.19-14.81,14.68-25.43,14.68h-92.18v86.79c0,4.48-2.7,8.53-6.85,10.24-1.37,.57-2.81,.84-4.24,.84Zm-98.07-120.25c2.94,0,5.76,1.17,7.84,3.25l79.14,79.14v-71.1c0-6.12,4.96-11.09,11.09-11.09h103.27c3.74,0,5.6-2.51,6.22-3.59,.62-1.08,1.87-3.94,0-7.18L378.72,37.65c-1.87-3.24-4.97-3.59-6.22-3.59s-4.35,.35-6.22,3.59L46.96,590.73c-1.87,3.24-.62,6.1,0,7.18,.62,1.08,2.48,3.59,6.22,3.59l437.29-.2h0Z"/><g><path class="cls-3" d="M372.5,469.6c-18.74,0-33.96-14.67-34.67-33.39l-7.89-208.99c0-.14,0-.28,0-.42,0-23.47,19.09-42.57,42.57-42.57s42.57,19.09,42.57,42.57c0,.14,0,.28,0,.42l-7.89,208.99c-.71,18.72-15.94,33.39-34.67,33.39Zm-20.39-242.98l7.88,208.75c.25,6.76,5.75,12.05,12.51,12.05s12.25-5.29,12.51-12.05l7.88-208.75c-.1-11.16-9.21-20.2-20.39-20.2s-20.29,9.05-20.39,20.2Z"/><path class="cls-3" d="M372.5,549.2c-19.13,0-34.7-15.56-34.7-34.7s15.56-34.7,34.7-34.7,34.7,15.56,34.7,34.7-15.56,34.7-34.7,34.7Zm0-47.21c-6.9,0-12.52,5.62-12.52,12.52s5.62,12.52,12.52,12.52,12.52-5.62,12.52-12.52-5.62-12.52-12.52-12.52Z"/></g></g></g></svg>