<?xml version="1.0" encoding="UTF-8"?><svg id="Layer_1" xmlns="http://www.w3.org/2000/svg" viewBox="0 0 1525.95 1546.95"><defs><style>.cls-1{fill:#fff;}.cls-2{fill:#2e3334;}</style></defs><g><g><path class="cls-2" d="M700.2,1500.25c-5.47,0-10.53-2.92-13.26-7.66l-121.37-210.22h-71.39c-61.24,0-111.06-49.82-111.06-111.06v-411.84c0-61.24,49.82-111.06,111.06-111.06h698.99c61.24,0,111.06,49.82,111.06,111.06v25.89c0,8.46-6.86,15.31-15.31,15.31s-15.31-6.86-15.31-15.31v-25.89c0-44.35-36.09-80.44-80.44-80.44H494.18c-44.35,0-80.44,36.09-80.44,80.44v411.84c0,44.36,36.09,80.44,80.44,80.44h80.24c5.47,0,10.53,2.92,13.26,7.66l112.53,194.91,112.53-194.91c2.74-4.74,7.79-7.66,13.26-7.66h367.18c44.35,0,80.44-36.09,80.44-80.44v-221.41c0-8.46,6.86-15.31,15.31-15.31s15.31,6.86,15.31,15.31v221.41c0,61.24-49.82,111.06-111.06,111.06h-358.34l-121.37,210.22c-2.73,4.74-7.79,7.66-13.26,7.66Z"/><g><path class="cls-2" d="M610.88,1043.08c-42.84,0-77.69-34.85-77.69-77.69s34.85-77.69,77.69-77.69,77.69,34.85,77.69,77.69-34.85,77.69-77.69,77.69Zm0-124.77c-25.95,0-47.07,21.12-47.07,47.07s21.12,47.07,47.07,47.07,47.07-21.12,47.07-47.07-21.12-47.07-47.07-47.07Z"/><path class="cls-2" d="M843.68,1043.08c-42.84,0-77.69-34.85-77.69-77.69s34.85-77.69,77.69-77.69,77.69,34.85,77.69,77.69-34.85,77.69-77.69,77.69Zm0-124.77c-25.95,0-47.07,21.12-47.07,47.07s21.12,47.07,47.07,47.07,47.07-21.12,47.07-47.07-21.12-47.07-47.07-47.07Z"/><path class="cls-2" d="M1045.86,1035.07c-2.55,0-5.13-.64-7.51-1.98-24.41-13.76-39.57-39.7-39.57-67.71,0-42.84,34.85-77.69,77.69-77.69,29.18,0,55.64,16.11,69.05,42.05,3.88,7.51,.94,16.75-6.57,20.63-7.51,3.88-16.75,.94-20.63-6.57-8.13-15.72-24.16-25.49-41.85-25.49-25.95,0-47.07,21.12-47.07,47.07,0,16.97,9.19,32.69,23.99,41.03,7.37,4.15,9.97,13.49,5.82,20.86-2.81,4.99-8.01,7.8-13.35,7.8Z"/></g></g><g><path class="cls-2" d="M1413.39,845.17c-4.01,0-8.02-1.57-11.02-4.68l-82.21-85.25c-5.87-6.09-5.69-15.78,.39-21.65,6.09-5.87,15.78-5.69,21.65,.39l82.21,85.25c5.87,6.09,5.69,15.78-.39,21.65-2.97,2.87-6.8,4.29-10.63,4.29Z"/><g><path class="cls-2" d="M1086.92,1160.01c-4.01,0-8.02-1.57-11.02-4.68-5.87-6.09-5.69-15.78,.39-21.65l377.37-363.94c8.86-8.55,13.97-19.9,14.39-31.98,.41-11.87-3.82-23.03-11.91-31.41-16.81-17.43-45.26-17.34-63.43,.18l-377.38,363.94c-6.09,5.87-15.78,5.7-21.65-.39-5.87-6.09-5.69-15.78,.39-21.65l377.38-363.94c30.33-29.25,78.21-28.98,106.74,.6,13.89,14.41,21.16,33.48,20.47,53.72-.69,20.06-9.12,38.87-23.73,52.97l-377.38,363.94c-2.97,2.87-6.8,4.29-10.63,4.29Z"/><path class="cls-2" d="M943.82,1215.76c-4.08,0-8.08-1.63-11.03-4.68-4.29-4.45-5.48-11.03-3.04-16.7l60.9-140.99c2.03-4.7,6.28-8.08,11.32-8.99,5.04-.91,10.2,.75,13.76,4.44l82.21,85.25c3.56,3.69,5.03,8.91,3.93,13.91-1.1,5-4.63,9.13-9.4,10.99l-143.11,55.74c-1.8,.7-3.69,1.04-5.55,1.04Zm65.83-129.13l-37.25,86.25,87.54-34.1-50.29-52.15Z"/></g></g></g><g><polygon class="cls-1" points="695.11 589.04 357 18.76 16.78 600.35 39.39 611.65 483.25 608.57 527.33 657.01 573.26 708.94 577.89 607.91 690.58 607.13 695.11 589.04"/><g><path class="cls-2" d="M573.74,719.85c-2.89,0-5.72-1.13-7.84-3.25l-94.82-94.82-432.7,.19c-10.62,0-20.12-5.49-25.43-14.68-5.31-9.19-5.31-20.17,0-29.36L332.26,24.85c5.31-9.19,14.81-14.68,25.43-14.68h0c10.62,0,20.12,5.49,25.43,14.68l319.32,553.08c5.31,9.2,5.3,20.17,0,29.36-5.31,9.19-14.81,14.68-25.43,14.68h-92.18v86.79c0,4.48-2.7,8.53-6.85,10.24-1.37,.57-2.81,.84-4.24,.84Zm-98.07-120.25c2.94,0,5.76,1.17,7.84,3.25l79.14,79.14v-71.1c0-6.12,4.96-11.09,11.09-11.09h103.27c3.74,0,5.6-2.51,6.22-3.59,.62-1.08,1.87-3.94,0-7.18L363.91,35.94c-1.87-3.24-4.97-3.59-6.22-3.59s-4.35,.35-6.22,3.59L32.15,589.02c-1.87,3.24-.62,6.1,0,7.18,.62,1.08,2.48,3.59,6.22,3.59l437.29-.2h0Z"/><g><path class="cls-2" d="M357.69,467.89c-18.74,0-33.96-14.67-34.67-33.39l-7.89-208.99c0-.14,0-.28,0-.42,0-23.47,19.09-42.57,42.57-42.57s42.57,19.09,42.57,42.57c0,.14,0,.28,0,.42l-7.89,208.99c-.71,18.72-15.94,33.39-34.67,33.39Zm-20.39-242.98l7.88,208.75c.25,6.76,5.75,12.05,12.51,12.05s12.25-5.29,12.51-12.05l7.88-208.75c-.1-11.16-9.21-20.2-20.39-20.2s-20.29,9.05-20.39,20.2Z"/><path class="cls-2" d="M357.69,547.49c-19.13,0-34.7-15.56-34.7-34.7s15.56-34.7,34.7-34.7,34.7,15.56,34.7,34.7-15.56,34.7-34.7,34.7Zm0-47.21c-6.9,0-12.52,5.62-12.52,12.52s5.62,12.52,12.52,12.52,12.52-5.62,12.52-12.52-5.62-12.52-12.52-12.52Z"/></g></g></g></svg>