<?xml version="1.0" encoding="UTF-8"?><svg id="Layer_1" xmlns="http://www.w3.org/2000/svg" viewBox="0 0 1360.8 1140.18"><defs><style>.cls-1{fill:#2e3334;}</style></defs><path class="cls-1" d="M1332.24,259.61c-10.18,0-18.43-8.25-18.43-18.43V85.88c0-18.87-15.35-34.22-34.22-34.22H79.29c-18.87,0-34.22,15.35-34.22,34.22V241.18c0,10.18-8.25,18.43-18.43,18.43s-18.43-8.25-18.43-18.43V85.88C8.22,46.69,40.1,14.81,79.29,14.81H1279.59c39.19,0,71.07,31.88,71.07,71.07V241.18c0,10.18-8.25,18.43-18.43,18.43Z"/><path class="cls-1" d="M1279.59,1123.86H79.29c-39.19,0-71.07-31.88-71.07-71.07V241.18c0-10.18,8.25-18.43,18.43-18.43H1332.24c10.18,0,18.43,8.25,18.43,18.43v811.61c0,39.19-31.88,71.07-71.07,71.07ZM45.07,259.61v793.18c0,18.87,15.35,34.22,34.22,34.22H1279.59c18.87,0,34.22-15.35,34.22-34.22V259.61H45.07Z"/><g><rect class="cls-1" x="160.01" y="106.5" width="61.42" height="61.42" rx="28.33" ry="28.33"/><rect class="cls-1" x="281.09" y="106.5" width="61.42" height="61.42" rx="28.33" ry="28.33"/><rect class="cls-1" x="402.17" y="106.5" width="61.42" height="61.42" rx="28.33" ry="28.33"/></g><g><g><path class="cls-1" d="M376.94,1021.03h-109.15c-10.18,0-18.43-8.25-18.43-18.43v-179.83c0-10.18,8.25-18.43,18.43-18.43h109.15c10.18,0,18.43,8.25,18.43,18.43v179.83c0,10.18-8.25,18.43-18.43,18.43Zm-90.72-36.85h72.3v-142.98h-72.3v142.98Z"/><path class="cls-1" d="M614.99,1021.03h-109.15c-10.18,0-18.43-8.25-18.43-18.43v-291.55c0-10.18,8.25-18.43,18.43-18.43h109.15c10.18,0,18.43,8.25,18.43,18.43v291.55c0,10.18-8.25,18.43-18.43,18.43Zm-90.72-36.85h72.3v-254.7h-72.3v254.7Z"/><path class="cls-1" d="M853.04,1021.03h-109.15c-10.18,0-18.43-8.25-18.43-18.43v-471.55c0-10.18,8.25-18.43,18.43-18.43h109.15c10.18,0,18.43,8.25,18.43,18.43v471.55c0,10.18-8.25,18.43-18.43,18.43Zm-90.72-36.85h72.3v-434.7h-72.3v434.7Z"/><path class="cls-1" d="M1091.09,1021.03h-109.15c-10.18,0-18.43-8.25-18.43-18.43v-329.2c0-10.18,8.25-18.43,18.43-18.43h109.15c10.18,0,18.43,8.25,18.43,18.43v329.2c0,10.18-8.25,18.43-18.43,18.43Zm-90.72-36.85h72.3v-292.35h-72.3v292.35Z"/></g><g><path class="cls-1" d="M1068.11,521.86c-8.69,0-16.43-6.18-18.09-15.03-1.87-10,4.71-19.63,14.72-21.5,9.47-1.77,17.59-5.47,24.15-11,7.78-6.55,19.41-5.56,25.96,2.22,6.55,7.78,5.56,19.41-2.22,25.96-11.48,9.67-25.31,16.07-41.1,19.03-1.15,.21-2.29,.32-3.41,.32Z"/><path class="cls-1" d="M1006.05,513.06c-2.57,0-5.18-.54-7.67-1.68-30.08-13.8-53.76-36.06-76.66-57.59l-4.25-3.99c-23.11-21.68-46.11-41.87-73.53-50.73-5.29-1.71-10.88-3-16.59-3.84-10.07-1.49-17.02-10.85-15.54-20.92,1.49-10.07,10.85-17.03,20.92-15.54,7.71,1.14,15.29,2.9,22.52,5.23,34.66,11.2,62.19,35.25,87.42,58.92l4.28,4.02c21.69,20.39,42.19,39.66,66.78,50.94,9.25,4.24,13.31,15.18,9.06,24.43-3.1,6.76-9.78,10.75-16.76,10.75Z"/><path class="cls-1" d="M584.13,543.03c-5.2,0-10.36-2.19-14.01-6.45-6.62-7.73-5.71-19.36,2.02-25.98,16.25-13.91,31.41-29.12,47.45-45.24,33.22-33.36,67.57-67.87,111.94-89.23,10-4.81,20.37-8.79,30.83-11.82,9.77-2.84,19.99,2.79,22.83,12.56,2.84,9.77-2.79,19.99-12.56,22.83-8.51,2.47-16.95,5.71-25.11,9.64-38.69,18.63-69.35,49.42-101.82,82.03-15.85,15.91-32.23,32.37-49.61,47.24-3.47,2.97-7.73,4.43-11.97,4.43Z"/><path class="cls-1" d="M353.81,670.61c-8.64,0-16.36-6.11-18.07-14.91-1.94-9.99,4.58-19.66,14.57-21.6,3.27-.64,6.61-1.4,9.92-2.27,52.18-13.62,104.05-40.09,163.25-83.31,8.22-6,19.75-4.2,25.75,4.02,6,8.22,4.2,19.75-4.02,25.75-63.06,46.03-118.87,74.37-175.66,89.19-4.06,1.06-8.17,2-12.21,2.79-1.19,.23-2.37,.34-3.54,.34Z"/><path class="cls-1" d="M290.8,669.14c-1.73,0-3.49-.25-5.23-.76-14.81-4.38-28.06-11.49-39.39-21.13-7.75-6.6-8.68-18.23-2.08-25.97,6.6-7.75,18.23-8.68,25.97-2.08,7.37,6.28,16.1,10.94,25.94,13.85,9.76,2.88,15.33,13.13,12.45,22.89-2.37,8.02-9.71,13.21-17.66,13.21Z"/><path class="cls-1" d="M322.37,699.23c-27.59,0-50.04-22.45-50.04-50.04s22.45-50.04,50.04-50.04,50.04,22.45,50.04,50.04-22.45,50.04-50.04,50.04Zm0-63.23c-7.27,0-13.19,5.92-13.19,13.19s5.92,13.19,13.19,13.19,13.19-5.92,13.19-13.19-5.92-13.19-13.19-13.19Z"/><path class="cls-1" d="M560.42,595.55c-27.59,0-50.04-22.45-50.04-50.04s22.45-50.04,50.04-50.04,50.04,22.45,50.04,50.04-22.45,50.04-50.04,50.04Zm0-63.23c-7.27,0-13.19,5.92-13.19,13.19s5.92,13.19,13.19,13.19,13.19-5.92,13.19-13.19-5.92-13.19-13.19-13.19Z"/><path class="cls-1" d="M798.47,425.67c-27.59,0-50.04-22.45-50.04-50.04s22.45-50.04,50.04-50.04,50.04,22.45,50.04,50.04-22.45,50.04-50.04,50.04Zm0-63.23c-7.27,0-13.19,5.92-13.19,13.19s5.92,13.19,13.19,13.19,13.19-5.92,13.19-13.19-5.92-13.19-13.19-13.19Z"/><path class="cls-1" d="M1036.52,553.2c-27.59,0-50.04-22.45-50.04-50.04s22.45-50.04,50.04-50.04,50.04,22.45,50.04,50.04-22.45,50.04-50.04,50.04Zm0-63.23c-7.27,0-13.19,5.92-13.19,13.19s5.92,13.19,13.19,13.19,13.19-5.92,13.19-13.19-5.92-13.19-13.19-13.19Z"/></g></g></svg>