<?xml version="1.0" encoding="UTF-8"?><svg id="Layer_1" xmlns="http://www.w3.org/2000/svg" viewBox="0 0 1561.82 1448.74"><defs><style>.cls-1{fill:#2e3334;}</style></defs><g><g><path class="cls-1" d="M89.88,660.67c-1,0-2.02-.06-3.04-.19-13.15-1.66-22.46-13.67-20.8-26.82,21.69-171.63,105.23-329.72,235.22-445.14,64.17-56.97,137.09-101.51,216.74-132.37C600.47,24.19,687.52,7.99,776.73,7.99c82.1,0,162.61,13.78,239.3,40.95,74.12,26.26,143.1,64.43,205.02,113.45,61.32,48.54,114.01,106.36,156.61,171.85,43.34,66.62,75.03,139.38,94.2,216.26,3.21,12.86-4.62,25.89-17.48,29.09-12.86,3.21-25.89-4.62-29.09-17.48C1350.97,264.12,1084.28,55.99,776.73,55.99c-335.95,0-621,250.93-663.06,583.68-1.53,12.13-11.87,20.99-23.78,20.99Z"/><path class="cls-1" d="M1448.42,580.5c-4.2,0-8.46-1.1-12.33-3.42l-127.42-76.47c-11.37-6.82-15.05-21.56-8.23-32.93,6.82-11.37,21.56-15.05,32.93-8.23l106.84,64.12,64.12-106.84c6.82-11.37,21.57-15.05,32.93-8.23,11.37,6.82,15.05,21.56,8.23,32.93l-76.47,127.42c-4.5,7.5-12.45,11.65-20.6,11.65Z"/></g><g><path class="cls-1" d="M776.73,1440.74c-80.43,0-159.39-13.24-234.71-39.34-72.8-25.24-140.79-61.97-202.09-109.19-60.65-46.72-113.19-102.49-156.18-165.77-43.65-64.26-76.33-134.65-97.13-209.22-3.56-12.77,3.9-26,16.67-29.57,12.77-3.56,26,3.9,29.56,16.67,80.19,287.57,344.96,488.42,643.87,488.42,335.95,0,621-250.93,663.06-583.68,1.66-13.15,13.68-22.46,26.82-20.8,13.15,1.66,22.46,13.67,20.8,26.82-21.7,171.63-105.23,329.72-235.22,445.14-64.17,56.97-137.09,101.51-216.74,132.37-82.47,31.95-169.51,48.15-258.72,48.15Z"/><path class="cls-1" d="M36.89,1064.04c-3.99,0-8.04-1-11.76-3.09-11.55-6.51-15.63-21.14-9.13-32.69l72.95-129.47c6.51-11.55,21.14-15.63,32.69-9.13l129.47,72.95c11.55,6.51,15.63,21.14,9.13,32.69-6.51,11.55-21.14,15.63-32.69,9.13l-108.56-61.17-61.17,108.56c-4.41,7.82-12.55,12.22-20.93,12.22Z"/></g></g><g><path class="cls-1" d="M527.98,1394.71c-13.25,0-24-10.75-24-24v-317.48c0-13.25,10.75-24,24-24s24,10.75,24,24v317.48c0,13.25-10.75,24-24,24Z"/><path class="cls-1" d="M780.91,933.37c-6.98,0-13.61-3.04-18.17-8.33l-85.49-99.11c-3.76-4.36-5.83-9.92-5.83-15.67v-75.88c0-13.25,10.75-24,24-24s24,10.75,24,24v66.96l61.49,71.29,61.49-71.29v-66.96c0-13.25,10.75-24,24-24s24,10.75,24,24v75.88c0,5.75-2.07,11.32-5.83,15.67l-85.49,99.11c-4.56,5.29-11.19,8.33-18.17,8.33Z"/><g><path class="cls-1" d="M982.26,541.93c-13.25,0-24-10.75-24-24v-80.2c0-97.44-79.27-177-176.7-177.35-.21,0-.42,0-.62,0-46.61,0-90.72,18.4-124.31,51.87-34.22,34.1-53.07,79.22-53.07,127.05v78.64c0,13.25-10.75,24-24,24s-24-10.75-24-24v-78.64c0-30.61,6.08-60.41,18.08-88.56,11.58-27.17,28.1-51.55,49.11-72.49,42.64-42.49,98.8-65.87,158.18-65.87,.27,0,.53,0,.8,0,60.02,.22,116.42,23.75,158.79,66.28,42.39,42.53,65.74,99.03,65.74,159.07v80.2c0,13.25-10.75,24-24,24Z"/><path class="cls-1" d="M780.91,784.95c-95.43,0-173.07-77.64-173.07-173.07v-134.94c0-6.49,2.63-12.7,7.29-17.22,4.65-4.52,10.94-6.96,17.42-6.77h0c1.54,.05,155.21,3.7,219.71-60.81,4.66-4.66,11.05-7.2,17.63-7.02,6.59,.18,12.82,3.07,17.22,7.98l60.76,67.82c3.94,4.4,6.12,10.1,6.12,16.01v134.94c0,95.43-77.64,173.07-173.07,173.07Zm-125.07-284.22v111.14c0,68.96,56.11,125.07,125.07,125.07s125.07-56.11,125.07-125.07v-125.76l-39.03-43.57c-64.67,47.62-164.86,56.65-211.11,58.19Z"/><path class="cls-1" d="M631.84,639.41h-21.2c-42.84,0-77.69-34.85-77.69-77.69s34.85-77.69,77.69-77.69h21.2c13.25,0,24,10.75,24,24v107.39c0,13.25-10.75,24-24,24Zm-24-107.26c-15.06,1.42-26.89,14.13-26.89,29.56s11.83,28.15,26.89,29.56v-59.13Z"/><path class="cls-1" d="M951.18,639.41h-21.19c-13.25,0-24-10.75-24-24v-107.39c0-13.25,10.75-24,24-24h21.19c42.84,0,77.69,34.85,77.69,77.69s-34.85,77.69-77.69,77.69Zm2.81-107.26v59.13c15.06-1.42,26.89-14.14,26.89-29.56s-11.83-28.14-26.89-29.56Z"/></g><path class="cls-1" d="M392.33,1324.31c-13.25,0-24-10.75-24-24v-271.58c0-41.65,13.07-81.38,37.79-114.9,24.72-33.52,58.83-57.73,98.62-70.03l184.3-56.96c12.66-3.92,26.1,3.17,30.02,15.84,3.92,12.66-3.17,26.1-15.84,30.02l-184.3,56.96c-61.36,18.96-102.59,74.85-102.59,139.07v271.58c0,13.25-10.75,24-24,24Z"/><path class="cls-1" d="M1169.49,1318.64c-13.25,0-24-10.75-24-24v-265.91c0-64.22-41.23-120.11-102.59-139.07l-184.31-56.96c-12.66-3.92-19.75-17.36-15.83-30.02,3.92-12.66,17.36-19.75,30.02-15.83l.71,.22,183.58,56.74c39.79,12.3,73.9,36.52,98.62,70.03,24.72,33.52,37.79,73.25,37.79,114.9v265.91c0,13.25-10.75,24-24,24Z"/><path class="cls-1" d="M1035.25,1390.86c-13.25,0-24-10.75-24-24v-313.63c0-13.25,10.75-24,24-24s24,10.75,24,24v313.63c0,13.25-10.75,24-24,24Z"/></g></svg>