<?xml version="1.0" encoding="UTF-8"?><svg id="Layer_1" xmlns="http://www.w3.org/2000/svg" viewBox="0 0 1360.8 1461.75"><defs><style>.cls-1,.cls-2{fill:#fff;}.cls-3{fill:#2e3334;}.cls-2{stroke:#2e3334;stroke-miterlimit:10;stroke-width:29px;}</style></defs><g><rect class="cls-2" x="24.97" y="33.38" width="794.06" height="992.58"/><g><g><path class="cls-3" d="M316.9,769.25c-32.69,0-59.29-26.6-59.29-59.29v-146.66c0-10.44,8.46-18.9,18.9-18.9h80.76c10.44,0,18.9,8.46,18.9,18.9v146.66c0,32.69-26.59,59.29-59.28,59.29Zm-21.48-187.04v127.76c0,11.84,9.64,21.48,21.48,21.48s21.47-9.64,21.47-21.48v-127.76h-42.95Z"/><path class="cls-3" d="M398.43,582.2H235.36c-10.44,0-18.9-8.46-18.9-18.9v-158.3c0-10.44,8.46-18.9,18.9-18.9h163.07c10.44,0,18.9,8.46,18.9,18.9v158.3c0,10.44-8.46,18.9-18.9,18.9Zm-144.17-37.81h125.26v-120.49h-125.26v120.49Z"/><path class="cls-3" d="M235.36,552.28h-65.54c-10.44,0-18.9-8.46-18.9-18.9v-98.46c0-10.44,8.46-18.9,18.9-18.9h65.54c10.44,0,18.9,8.46,18.9,18.9v98.46c0,10.44-8.46,18.9-18.9,18.9Zm-46.64-37.81h27.73v-60.65h-27.73v60.65Z"/><path class="cls-3" d="M590.68,642.99c-1.91,0-3.83-.29-5.7-.88l-192.25-60.79c-7.86-2.49-13.2-9.78-13.2-18.02v-158.28c0-8.24,5.34-15.54,13.2-18.02l192.25-60.8c5.74-1.82,12.01-.79,16.87,2.77,4.86,3.56,7.73,9.22,7.73,15.25v279.87c0,6.03-2.87,11.69-7.73,15.25-3.28,2.4-7.2,3.65-11.17,3.65Zm-173.35-93.54l154.45,48.84v-228.26l-154.45,48.84v130.58Z"/><path class="cls-3" d="M607.21,558.6c-7.89,0-15.62-1.36-23-4.05-9.81-3.58-14.86-14.43-11.28-24.24,3.58-9.81,14.43-14.86,24.24-11.28,3.21,1.17,6.59,1.76,10.04,1.76,7.87,0,15.24-3.09,20.77-8.69,5.53-5.6,8.51-13.03,8.4-20.91-.21-15.29-12.8-28.18-28.07-28.73-3.84-.14-7.59,.45-11.15,1.74-9.81,3.58-20.66-1.48-24.23-11.29-3.58-9.81,1.48-20.66,11.29-24.23,8.16-2.97,16.71-4.32,25.46-4,17.16,.62,33.28,7.78,45.38,20.17,12.1,12.38,18.89,28.65,19.12,45.82,.25,18.08-6.6,35.12-19.29,47.98-12.69,12.86-29.62,19.95-47.68,19.95Z"/></g><g><path class="cls-3" d="M666.57,200.32H142.07c-10.44,0-18.9-8.46-18.9-18.9s8.46-18.9,18.9-18.9H666.57c10.44,0,18.9,8.46,18.9,18.9s-8.46,18.9-18.9,18.9Z"/><path class="cls-3" d="M377.41,291.78H142.07c-10.44,0-18.9-8.46-18.9-18.9s8.46-18.9,18.9-18.9h235.34c10.44,0,18.9,8.46,18.9,18.9s-8.46,18.9-18.9,18.9Z"/></g></g></g><g><rect class="cls-2" x="126.66" y="132.93" width="794.06" height="992.58"/><g><g><path class="cls-3" d="M418.58,868.79c-32.69,0-59.29-26.6-59.29-59.29v-146.66c0-10.44,8.46-18.9,18.9-18.9h80.76c10.44,0,18.9,8.46,18.9,18.9v146.66c0,32.69-26.59,59.29-59.28,59.29Zm-21.48-187.04v127.76c0,11.84,9.64,21.48,21.48,21.48s21.47-9.64,21.47-21.48v-127.76h-42.95Z"/><path class="cls-3" d="M500.11,681.75h-163.07c-10.44,0-18.9-8.46-18.9-18.9v-158.3c0-10.44,8.46-18.9,18.9-18.9h163.07c10.44,0,18.9,8.46,18.9,18.9v158.3c0,10.44-8.46,18.9-18.9,18.9Zm-144.17-37.81h125.26v-120.49h-125.26v120.49Z"/><path class="cls-3" d="M337.04,651.83h-65.54c-10.44,0-18.9-8.46-18.9-18.9v-98.46c0-10.44,8.46-18.9,18.9-18.9h65.54c10.44,0,18.9,8.46,18.9,18.9v98.46c0,10.44-8.46,18.9-18.9,18.9Zm-46.64-37.81h27.73v-60.65h-27.73v60.65Z"/><path class="cls-3" d="M692.36,742.53c-1.91,0-3.83-.29-5.7-.88l-192.25-60.79c-7.86-2.49-13.2-9.78-13.2-18.02v-158.28c0-8.24,5.34-15.54,13.2-18.02l192.25-60.8c5.74-1.82,12.01-.79,16.87,2.77,4.86,3.56,7.73,9.22,7.73,15.25v279.87c0,6.03-2.87,11.69-7.73,15.25-3.28,2.4-7.2,3.65-11.17,3.65Zm-173.35-93.54l154.45,48.84v-228.26l-154.45,48.84v130.58Z"/><path class="cls-3" d="M708.89,658.15c-7.89,0-15.62-1.36-23-4.05-9.81-3.58-14.86-14.43-11.28-24.24,3.58-9.81,14.43-14.86,24.24-11.28,3.21,1.17,6.59,1.76,10.04,1.76,7.87,0,15.24-3.09,20.77-8.69,5.53-5.6,8.51-13.03,8.4-20.91-.21-15.29-12.8-28.18-28.07-28.73-3.84-.14-7.59,.45-11.15,1.74-9.81,3.58-20.66-1.48-24.23-11.29-3.58-9.81,1.48-20.66,11.29-24.23,8.16-2.97,16.71-4.32,25.46-4,17.16,.62,33.28,7.78,45.38,20.17,12.1,12.38,18.89,28.65,19.12,45.82,.25,18.08-6.6,35.12-19.29,47.98-12.69,12.86-29.62,19.95-47.68,19.95Z"/></g><g><path class="cls-3" d="M768.26,299.87H243.75c-10.44,0-18.9-8.46-18.9-18.9s8.46-18.9,18.9-18.9H768.26c10.44,0,18.9,8.46,18.9,18.9s-8.46,18.9-18.9,18.9Z"/><path class="cls-3" d="M479.09,391.33H243.75c-10.44,0-18.9-8.46-18.9-18.9s8.46-18.9,18.9-18.9h235.34c10.44,0,18.9,8.46,18.9,18.9s-8.46,18.9-18.9,18.9Z"/></g></g></g><g><rect class="cls-2" x="232.69" y="227.28" width="794.06" height="992.58"/><g><g><path class="cls-3" d="M524.61,963.15c-32.69,0-59.29-26.6-59.29-59.29v-146.66c0-10.44,8.46-18.9,18.9-18.9h80.76c10.44,0,18.9,8.46,18.9,18.9v146.66c0,32.69-26.59,59.29-59.28,59.29Zm-21.48-187.04v127.76c0,11.84,9.64,21.48,21.48,21.48s21.47-9.64,21.47-21.48v-127.76h-42.95Z"/><path class="cls-3" d="M606.14,776.1h-163.07c-10.44,0-18.9-8.46-18.9-18.9v-158.3c0-10.44,8.46-18.9,18.9-18.9h163.07c10.44,0,18.9,8.46,18.9,18.9v158.3c0,10.44-8.46,18.9-18.9,18.9Zm-144.17-37.81h125.26v-120.49h-125.26v120.49Z"/><path class="cls-3" d="M443.07,746.18h-65.54c-10.44,0-18.9-8.46-18.9-18.9v-98.46c0-10.44,8.46-18.9,18.9-18.9h65.54c10.44,0,18.9,8.46,18.9,18.9v98.46c0,10.44-8.46,18.9-18.9,18.9Zm-46.64-37.81h27.73v-60.65h-27.73v60.65Z"/><path class="cls-3" d="M798.4,836.88c-1.91,0-3.83-.29-5.7-.88l-192.25-60.79c-7.86-2.49-13.2-9.78-13.2-18.02v-158.28c0-8.24,5.34-15.54,13.2-18.02l192.25-60.8c5.74-1.82,12.01-.79,16.87,2.77,4.86,3.56,7.73,9.22,7.73,15.25v279.87c0,6.03-2.87,11.69-7.73,15.25-3.28,2.4-7.2,3.65-11.17,3.65Zm-173.35-93.54l154.45,48.84v-228.26l-154.45,48.84v130.58Z"/><path class="cls-3" d="M814.92,752.5c-7.89,0-15.62-1.36-23-4.05-9.81-3.58-14.86-14.43-11.28-24.24,3.58-9.81,14.43-14.86,24.24-11.28,3.21,1.17,6.59,1.76,10.04,1.76,7.87,0,15.24-3.09,20.77-8.69,5.53-5.6,8.51-13.03,8.4-20.91-.21-15.29-12.8-28.18-28.07-28.73-3.84-.14-7.59,.45-11.15,1.74-9.81,3.58-20.66-1.48-24.23-11.29-3.58-9.81,1.48-20.66,11.29-24.23,8.16-2.97,16.71-4.32,25.46-4,17.16,.62,33.28,7.78,45.38,20.17,12.1,12.38,18.89,28.65,19.12,45.82,.25,18.08-6.6,35.12-19.29,47.98-12.69,12.86-29.62,19.95-47.68,19.95Z"/></g><g><path class="cls-3" d="M874.29,394.22H349.78c-10.44,0-18.9-8.46-18.9-18.9s8.46-18.9,18.9-18.9H874.29c10.44,0,18.9,8.46,18.9,18.9s-8.46,18.9-18.9,18.9Z"/><path class="cls-3" d="M585.12,485.68h-235.34c-10.44,0-18.9-8.46-18.9-18.9s8.46-18.9,18.9-18.9h235.34c10.44,0,18.9,8.46,18.9,18.9s-8.46,18.9-18.9,18.9Z"/></g></g></g><g><circle class="cls-1" cx="1064.44" cy="1152.27" r="261.36"/><path class="cls-3" d="M1064.1,1442.94c-77.01,0-149.41-29.99-203.87-84.44-54.46-54.46-84.44-126.86-84.44-203.87s29.99-149.41,84.44-203.87c54.45-54.46,126.86-84.44,203.87-84.44s149.41,29.99,203.87,84.44c54.45,54.45,84.44,126.86,84.44,203.87s-29.99,149.41-84.44,203.87c-54.46,54.45-126.86,84.44-203.87,84.44Zm0-531.65c-134.18,0-243.34,109.16-243.34,243.34s109.16,243.34,243.34,243.34,243.34-109.16,243.34-243.34-109.16-243.34-243.34-243.34Z"/><path class="cls-3" d="M1008.2,1273.92c-5.76,0-11.51-2.2-15.9-6.59l-81.81-81.81c-8.78-8.78-8.78-23.02,0-31.8,8.78-8.78,23.02-8.78,31.8,0l65.91,65.91,177.72-177.72c8.78-8.78,23.02-8.78,31.8,0,8.78,8.78,8.78,23.02,0,31.8l-193.62,193.62c-4.39,4.39-10.15,6.59-15.9,6.59Z"/></g></svg>