<?xml version="1.0" encoding="UTF-8"?><svg id="Layer_1" xmlns="http://www.w3.org/2000/svg" viewBox="0 0 1360.8 1546.56"><defs><style>.cls-1{fill:none;}.cls-2{fill:#2e3334;}</style></defs><g><g><path class="cls-2" d="M1321.34,1538.88H35.7c-5.57,0-10.91-2.21-14.85-6.15-3.94-3.94-6.15-9.28-6.15-14.85l.24-862.03c0-11.6,9.4-20.99,21-20.99h0c11.6,0,21,9.41,20.99,21.01l-.24,841.02H1300.33l-.24-841.02c0-11.6,9.4-21,20.99-21.01h0c11.6,0,21,9.4,21,20.99l.24,862.03c0,5.57-2.21,10.91-6.15,14.85-3.94,3.94-9.28,6.15-14.85,6.15Z"/><path class="cls-2" d="M678.75,1268.77h-.46c-5.27,0-10.35-1.98-14.23-5.56l-122.18-112.58L251.46,883,21.71,671.29c-8.53-7.86-9.07-21.14-1.21-29.67,7.86-8.53,21.14-9.07,29.67-1.21l229.75,211.71,290.42,267.63,108.18,99.68,108.18-99.68,290.42-267.63,229.75-211.71c8.53-7.86,21.81-7.32,29.67,1.21,7.86,8.53,7.32,21.81-1.21,29.67l-229.75,211.71-290.42,267.63-122.18,112.58c-3.88,3.57-8.96,5.56-14.23,5.56Z"/><path class="cls-2" d="M1321.32,1538.88c-4.32,0-8.68-1.33-12.42-4.08l-520.42-382.7c-9.34-6.87-11.35-20.02-4.48-29.36,6.87-9.34,20.01-11.35,29.36-4.48l520.41,382.7c9.34,6.87,11.35,20.02,4.48,29.36-4.12,5.6-10.48,8.56-16.93,8.56Z"/><path class="cls-2" d="M35.72,1538.88c-6.45,0-12.82-2.96-16.93-8.56-6.87-9.34-4.87-22.49,4.48-29.36l520.41-382.7c9.34-6.87,22.49-4.87,29.36,4.48,6.87,9.34,4.87,22.49-4.48,29.36L48.14,1534.8c-3.75,2.75-8.1,4.08-12.42,4.08Z"/></g><path class="cls-2" d="M1091.33,888.54c-11.6,0-21-9.4-21-21V224.05H286.71V867.54c0,11.6-9.4,21-21,21s-21-9.4-21-21V203.05c0-11.6,9.4-21,21-21h825.62c11.6,0,21,9.4,21,21V867.54c0,11.6-9.4,21-21,21Z"/><path class="cls-2" d="M503.87,224.05c-5.4,0-10.81-2.07-14.91-6.21-8.17-8.24-8.11-21.53,.13-29.7L663.74,14.97c8.24-8.17,21.53-8.11,29.7,.13,8.17,8.24,8.11,21.53-.13,29.7l-174.66,173.17c-4.1,4.06-9.44,6.09-14.79,6.09Z"/><path class="cls-2" d="M853.38,224.05c-5.34,0-10.68-2.02-14.78-6.08L663.75,44.8c-8.24-8.16-8.3-21.46-.14-29.7,8.16-8.24,21.46-8.3,29.7-.14l174.85,173.17c8.24,8.16,8.3,21.46,.14,29.7-4.11,4.15-9.51,6.22-14.92,6.22Z"/><path class="cls-2" d="M35.94,676.85c-5.47,0-10.93-2.12-15.04-6.35-8.09-8.31-7.92-21.6,.39-29.7l229.77-223.83c8.31-8.09,21.6-7.92,29.7,.39,8.09,8.31,7.92,21.6-.39,29.7L50.59,670.9c-4.08,3.98-9.37,5.96-14.65,5.96Z"/><path class="cls-2" d="M1321.1,676.85c-5.28,0-10.57-1.98-14.65-5.96l-229.77-223.83c-8.31-8.09-8.48-21.39-.39-29.7,8.09-8.31,21.39-8.48,29.7-.39l229.77,223.83c8.31,8.09,8.48,21.39,.39,29.7-4.12,4.23-9.58,6.35-15.04,6.35Z"/><g><g><path class="cls-2" d="M584.26,979.87c-36.32,0-65.86-29.54-65.86-65.86v-162.92c0-11.6,9.4-21,21-21h89.71c11.6,0,21,9.4,21,21v162.92c0,36.32-29.54,65.86-65.85,65.86Zm-23.86-207.78v141.92c0,13.16,10.7,23.86,23.86,23.86s23.85-10.7,23.85-23.86v-141.92h-47.71Z"/><path class="cls-2" d="M674.83,772.09h-181.15c-11.6,0-21-9.4-21-21v-175.85c0-11.6,9.4-21,21-21h181.15c11.6,0,21,9.4,21,21v175.85c0,11.6-9.4,21-21,21Zm-160.15-42h139.15v-133.85h-139.15v133.85Z"/><path class="cls-2" d="M493.68,738.85h-72.81c-11.6,0-21-9.4-21-21v-109.38c0-11.6,9.4-21,21-21h72.81c11.6,0,21,9.4,21,21v109.38c0,11.6-9.4,21-21,21Zm-51.81-42h30.81v-67.38h-30.81v67.38Z"/><path class="cls-2" d="M888.4,839.61c-2.12,0-4.26-.32-6.33-.98l-213.57-67.53c-8.73-2.76-14.67-10.86-14.67-20.02v-175.83c0-9.16,5.94-17.26,14.67-20.02l213.57-67.54c6.38-2.02,13.34-.87,18.74,3.08,5.4,3.96,8.59,10.25,8.59,16.94v310.9c0,6.69-3.19,12.99-8.59,16.94-3.64,2.67-8,4.06-12.41,4.06Zm-192.57-103.92l171.57,54.25v-253.57l-171.57,54.26v145.06Z"/><path class="cls-2" d="M906.76,745.87c-8.76,0-17.36-1.51-25.55-4.5-10.9-3.97-16.51-16.03-12.53-26.92,3.97-10.9,16.03-16.51,26.92-12.53,3.56,1.3,7.32,1.96,11.15,1.96,8.74,0,16.93-3.43,23.07-9.65,6.14-6.22,9.45-14.48,9.33-23.23-.23-16.98-14.22-31.3-31.18-31.91-4.27-.15-8.43,.5-12.38,1.93-10.9,3.97-22.95-1.64-26.92-12.54-3.97-10.9,1.64-22.95,12.54-26.92,9.06-3.3,18.56-4.79,28.28-4.45,19.06,.69,36.97,8.65,50.41,22.4,13.44,13.75,20.98,31.83,21.24,50.9,.28,20.08-7.33,39.01-21.43,53.3-14.09,14.29-32.9,22.16-52.97,22.16Z"/></g><g><path class="cls-2" d="M972.7,347.86H390.04c-11.6,0-21-9.4-21-21s9.4-21,21-21H972.7c11.6,0,21,9.4,21,21s-9.4,21-21,21Z"/><path class="cls-2" d="M651.48,449.46H390.04c-11.6,0-21-9.4-21-21s9.4-21,21-21h261.43c11.6,0,21,9.4,21,21s-9.4,21-21,21Z"/></g></g></g><rect class="cls-1" x="-321.48" y="-226.12" width="2000" height="2000"/></svg>