<?xml version="1.0" encoding="UTF-8"?><svg id="Layer_1" xmlns="http://www.w3.org/2000/svg" viewBox="0 0 1559 1031"><defs><style>.cls-1{fill:none;}.cls-2{fill:#2e3334;}</style></defs><g><path class="cls-2" d="M779.35,906.17c-52.81,0-105.76-5.26-158.18-15.84-153.18-30.91-292.79-105.9-403.75-216.86L18.03,474.09c-4.5-4.5-7.03-10.61-7.03-16.97s2.53-12.47,7.03-16.97L217.42,240.76c75.81-75.81,164.2-134.5,262.74-174.46,95.16-38.59,195.71-58.16,298.84-58.16s203.68,19.57,298.84,58.16c98.53,39.96,186.93,98.65,262.74,174.46l199.39,199.39c9.37,9.37,9.37,24.57,0,33.94l-199.39,199.39c-46.67,46.67-98.8,87.32-154.93,120.82-11.38,6.79-26.12,3.07-32.91-8.31-6.79-11.38-3.07-26.12,8.31-32.91,52.74-31.47,101.72-69.67,145.59-113.54l182.42-182.42-182.42-182.42C1165.7,133.76,978.32,56.15,779,56.15S392.3,133.76,251.36,274.7L68.94,457.12l182.42,182.42c208.85,208.85,521.82,274.91,797.34,168.31,12.37-4.78,26.26,1.36,31.04,13.72,4.78,12.36-1.36,26.26-13.72,31.04-91.95,35.58-189.03,53.56-286.67,53.56Z"/><g><path class="cls-2" d="M779,746.12c-77.19,0-149.77-30.06-204.35-84.65-54.59-54.58-84.65-127.16-84.65-204.35s30.06-149.77,84.65-204.35c54.59-54.58,127.16-84.65,204.35-84.65s149.77,30.06,204.35,84.65c54.58,54.59,84.65,127.16,84.65,204.35s-30.06,149.77-84.65,204.35c-54.58,54.59-127.16,84.65-204.35,84.65Zm0-530c-132.89,0-241,108.11-241,241s108.11,241,241,241,241-108.11,241-241-108.11-241-241-241Z"/><g><path class="cls-2" d="M1250.25,1021.85c-22.7,0-44.05-8.84-60.1-24.9l-290.32-290.32c-9.37-9.37-9.37-24.57,0-33.94,9.37-9.37,24.57-9.37,33.94,0l290.32,290.32c6.99,6.99,16.28,10.84,26.16,10.84s19.17-3.85,26.16-10.84c14.43-14.43,14.43-37.9,0-52.32l-290.32-290.32c-9.37-9.37-9.37-24.57,0-33.94,9.37-9.37,24.57-9.37,33.94,0l290.32,290.32c33.14,33.14,33.14,87.07,0,120.21-16.05,16.05-37.4,24.9-60.1,24.9Z"/><path class="cls-2" d="M1172.94,969.81c-6.14,0-12.28-2.34-16.97-7.03-9.37-9.37-9.37-24.57,0-33.94l86.27-86.27c9.37-9.37,24.57-9.37,33.94,0,9.37,9.37,9.37,24.57,0,33.94l-86.27,86.27c-4.69,4.69-10.83,7.03-16.97,7.03Z"/></g></g></g><rect class="cls-1" x="-221" y="-485" width="2000" height="2000"/></svg>