<?xml version="1.0" encoding="UTF-8"?><svg id="Layer_1" xmlns="http://www.w3.org/2000/svg" viewBox="0 0 958.9 1546.95"><defs><style>.cls-1{fill:#2e3334;}</style></defs><g><path class="cls-1" d="M736.2,1539.08H68.64c-31.85,0-57.76-25.91-57.76-57.76V187.19c0-31.85,25.91-57.77,57.76-57.77H489.04c11.6,0,21,9.4,21,21s-9.4,21-21,21H68.64c-8.69,0-15.76,7.07-15.76,15.77V1481.32c0,8.69,7.07,15.76,15.76,15.76H736.2c8.69,0,15.76-7.07,15.76-15.76V493.99c0-11.6,9.4-21,21-21s21,9.4,21,21v987.33c0,31.85-25.91,57.76-57.76,57.76Z"/><g><path class="cls-1" d="M460.73,326.43H31.88c-11.6,0-21-9.4-21-21s9.4-21,21-21H460.73c11.6,0,21,9.4,21,21s-9.4,21-21,21Z"/><path class="cls-1" d="M772.97,1339.63H31.88c-11.6,0-21-9.4-21-21s9.4-21,21-21H772.97c11.6,0,21,9.4,21,21s-9.4,21-21,21Z"/></g><path class="cls-1" d="M485.63,1439.78h-166.41c-11.6,0-21-9.4-21-21s9.4-21,21-21h166.41c11.6,0,21,9.4,21,21s-9.4,21-21,21Z"/><g><path class="cls-1" d="M608.7,993.6H196.14c-11.6,0-21-9.4-21-21v-276.69c0-11.6,9.4-21,21-21h412.56c11.6,0,21,9.4,21,21v276.69c0,11.6-9.4,21-21,21Zm-391.56-42h370.56v-234.69H217.14v234.69Z"/><path class="cls-1" d="M402.5,906.92h-.15c-5.27,0-10.35-1.98-14.23-5.56l-206.21-190.02c-8.53-7.86-9.07-21.14-1.21-29.67,7.86-8.53,21.15-9.07,29.67-1.21l192.05,176.97,192.05-176.97c8.53-7.86,21.81-7.32,29.67,1.21,7.86,8.53,7.32,21.81-1.21,29.67l-206.2,190.02c-3.88,3.57-8.96,5.56-14.23,5.56Z"/><path class="cls-1" d="M608.68,993.6c-4.32,0-8.68-1.33-12.42-4.08l-167-122.81c-9.34-6.87-11.35-20.02-4.48-29.36,6.87-9.34,20.02-11.35,29.36-4.48l167,122.81c9.34,6.87,11.35,20.02,4.48,29.36-4.12,5.6-10.48,8.56-16.93,8.56Z"/><path class="cls-1" d="M196.16,993.6c-6.45,0-12.82-2.96-16.93-8.56-6.87-9.34-4.87-22.49,4.48-29.36l167-122.81c9.34-6.87,22.49-4.87,29.36,4.48,6.87,9.34,4.87,22.49-4.48,29.36l-167,122.81c-3.75,2.75-8.1,4.08-12.42,4.08Z"/></g></g><g><path class="cls-1" d="M696.14,527.64c-69.26,0-134.37-26.97-183.34-75.94-48.97-48.97-75.94-114.08-75.94-183.34s26.97-134.37,75.94-183.34c48.97-48.97,114.08-75.94,183.34-75.94s134.37,26.97,183.34,75.94c48.97,48.97,75.94,114.08,75.94,183.34s-26.97,134.37-75.94,183.34c-48.97,48.97-114.08,75.94-183.34,75.94Zm0-476.56c-119.81,0-217.28,97.47-217.28,217.28s97.47,217.28,217.28,217.28,217.28-97.47,217.28-217.28-97.47-217.28-217.28-217.28Z"/><g><g><path class="cls-1" d="M696.14,455.08c-39.98,0-72.51-32.53-72.51-72.51,0-6.55,.88-13.06,2.62-19.33,3.09-11.18,14.66-17.74,25.84-14.64,11.18,3.09,17.73,14.66,14.64,25.84-.73,2.63-1.1,5.37-1.1,8.14,0,16.82,13.69,30.51,30.51,30.51s30.51-13.69,30.51-30.51c0-2.77-.37-5.51-1.1-8.13-3.09-11.18,3.46-22.75,14.64-25.84,11.18-3.09,22.75,3.46,25.84,14.64,1.74,6.28,2.62,12.78,2.62,19.34,0,39.98-32.53,72.51-72.51,72.51Z"/><path class="cls-1" d="M826.14,388.57h-260c-11.6,0-21-9.4-21-21,0-17.87,6.96-34.67,19.59-47.3,4.89-4.89,10.47-8.97,16.6-12.14,.45-.23,.76-.8,.76-1.42v-81.08c0-59.87,48.71-108.57,108.57-108.57h10.96c59.87,0,108.57,48.71,108.57,108.57v81.08c0,.63,.41,1.23,1.06,1.57h0c22.14,11.59,35.89,34.31,35.89,59.28,0,11.6-9.4,21-21,21Zm-227.48-42h194.97c-.6-.38-1.22-.74-1.86-1.08h0c-14.54-7.61-23.57-22.47-23.57-38.78v-81.08c0-36.71-29.87-66.57-66.57-66.57h-10.96c-36.71,0-66.57,29.86-66.57,66.57v81.08c0,16.4-8.99,31.24-23.46,38.72-.67,.35-1.33,.73-1.97,1.13Z"/></g><path class="cls-1" d="M696.14,154.81c-11.6,0-21-9.4-21-21v-31.17c0-11.6,9.4-21,21-21s21,9.4,21,21v31.17c0,11.6-9.4,21-21,21Z"/></g></g></svg>